<svg width="78" height="70" viewBox="0 0 78 70" fill="none" xmlns="http://www.w3.org/2000/svg">
<path d="M64.1036 0.0708542C63.9379 0.120575 63.8053 0.220009 63.8053 0.302872C63.8053 0.369164 63.507 0.485176 63.1424 0.551468C62.7281 0.61776 62.4795 0.750343 62.4795 0.899498C62.4795 1.04865 62.2972 1.13152 61.9823 1.13152C61.6343 1.13152 61.4851 1.21438 61.4851 1.39668C61.4851 1.54584 61.336 1.69499 61.1537 1.74471C60.9217 1.811 60.8222 1.97673 60.8222 2.30819C60.8222 2.6065 60.7394 2.7888 60.5902 2.7888C60.4576 2.7888 60.3085 3.03739 60.2588 3.35227C60.1925 3.66716 60.0599 3.94889 59.9439 3.99861C59.8113 4.03176 59.7284 4.61181 59.6953 5.73876C59.6456 7.01487 59.5793 7.42918 59.4135 7.42918C59.2312 7.42918 59.1815 8.02581 59.1318 10.1968C59.0987 12.169 59.0324 12.9811 58.8832 13.0142C58.7672 13.0639 58.6346 13.3457 58.5683 13.6606C58.5186 13.9754 58.3695 14.224 58.2369 14.224C58.0877 14.224 58.0049 14.4229 58.0049 14.8041V15.3841H56.5962C55.5024 15.3841 55.1875 15.4339 55.1875 15.6162C55.1875 15.7322 55.0383 15.8813 54.856 15.931C54.6737 15.9808 54.5246 16.1299 54.5246 16.2791C54.5246 16.4282 54.4086 16.5442 54.276 16.5442C54.1102 16.5442 54.0274 16.7265 54.0274 17.1243C54.0274 17.522 53.9445 17.7043 53.7788 17.7043C53.6131 17.7043 53.5302 17.8701 53.5302 18.1849C53.5302 18.5164 53.4308 18.6821 53.1987 18.7484C52.9501 18.8147 52.8673 18.9804 52.8673 19.345C52.8673 19.6931 52.7844 19.8588 52.6187 19.8588C52.4861 19.8588 52.3701 20.0079 52.3701 20.1903C52.3701 20.4057 52.2541 20.5217 52.0386 20.5217C51.7735 20.5217 51.7072 20.6377 51.7072 21.0189C51.7072 21.3503 51.6243 21.5161 51.4586 21.5161C51.326 21.5161 51.21 21.6652 51.21 21.8475C51.21 22.063 51.094 22.179 50.8785 22.179C50.6962 22.179 50.5471 22.295 50.5471 22.4276C50.5471 22.7093 50.3814 22.7425 48.8567 22.6762C47.1165 22.6265 45.4095 22.8253 45.4095 23.1071C45.4095 23.2728 45.1941 23.3391 44.6637 23.3391C44.1334 23.3391 43.918 23.4054 43.918 23.5711C43.918 23.7037 43.6694 23.8528 43.3545 23.9026C43.0396 23.9689 42.7413 24.118 42.6916 24.2506C42.6419 24.3832 42.443 24.4992 42.2607 24.4992C42.0784 24.4992 41.9292 24.6152 41.9292 24.7478C41.9292 24.9135 41.7635 24.9964 41.432 24.9964C41.1006 24.9964 40.9349 25.0792 40.9349 25.245C40.9349 25.3775 40.7028 25.5267 40.3548 25.593C40.0233 25.6427 39.7748 25.7919 39.7748 25.9244C39.7748 26.057 39.6587 26.1565 39.5262 26.1565C39.3936 26.1565 39.2776 26.2559 39.2776 26.3885C39.2776 26.5211 39.029 26.6702 38.6975 26.7199C38.3495 26.7862 38.1175 26.9354 38.1175 27.068C38.1175 27.2006 37.9683 27.3166 37.786 27.3166C37.6037 27.3166 37.4546 27.4326 37.4546 27.5652C37.4546 27.6977 37.3386 27.8137 37.206 27.8137C37.0734 27.8137 36.9574 27.9298 36.9574 28.0623C36.9574 28.1949 36.7254 28.3441 36.3773 28.4104C36.0459 28.4601 35.7973 28.6092 35.7973 28.7418C35.7973 28.8744 35.6978 28.9738 35.5653 28.9738C35.4492 28.9738 35.3001 29.123 35.2504 29.3053C35.2007 29.4876 35.0515 29.6368 34.9023 29.6368C34.7532 29.6368 34.6372 29.7528 34.6372 29.8853C34.6372 30.0179 34.488 30.1339 34.3057 30.1339C34.1234 30.1339 33.8417 30.2831 33.6925 30.4654C33.5268 30.6477 33.3114 30.7969 33.1953 30.7969C33.0793 30.7969 32.9799 30.9129 32.9799 31.0454C32.9799 31.178 32.8639 31.294 32.7313 31.294C32.5987 31.294 32.4827 31.41 32.4827 31.5426C32.4827 31.6752 32.3336 31.7912 32.1513 31.7912C31.9358 31.7912 31.8198 31.9072 31.8198 32.1227C31.8198 32.3713 31.7038 32.4541 31.3392 32.4541C31.0077 32.4541 30.842 32.5536 30.7757 32.7856C30.726 32.9679 30.5768 33.117 30.4277 33.117C30.2785 33.117 30.1625 33.2331 30.1625 33.3656C30.1625 33.4982 30.0631 33.6142 29.9305 33.6142C29.7979 33.6142 29.6488 33.8463 29.5825 34.1114C29.5162 34.3932 29.367 34.6086 29.2344 34.6086C29.1019 34.6086 29.0024 34.7578 29.0024 34.9401C29.0024 35.1224 28.8864 35.2715 28.7538 35.2715C28.6213 35.2715 28.4721 35.5035 28.4058 35.8516C28.3561 36.183 28.2069 36.4316 28.0743 36.4316C27.9252 36.4316 27.8423 36.6305 27.8423 37.0117C27.8423 37.4094 27.7595 37.5917 27.5937 37.5917C27.3949 37.5917 27.3451 37.8237 27.3451 38.6855C27.3451 39.6302 27.2954 39.7959 27.0137 39.8622C26.8314 39.9119 26.6822 40.0611 26.6822 40.1771C26.6822 40.3096 26.5331 40.4091 26.3508 40.4091C26.1685 40.4091 26.0193 40.5251 26.0193 40.6577C26.0193 40.8234 25.8536 40.9063 25.5221 40.9063C25.2073 40.9063 25.025 40.9891 25.025 41.1383C25.025 41.4035 24.5278 41.5692 23.7488 41.5692C23.3842 41.5692 23.2019 41.652 23.2019 41.8012C23.2019 41.9669 22.8705 42.0498 21.9424 42.0995C20.9646 42.1492 20.6497 42.2155 20.5337 42.4475C20.4343 42.5967 20.252 42.7293 20.136 42.7293C20.0034 42.7293 19.8874 42.8453 19.8874 42.9779C19.8874 43.1105 19.7382 43.2265 19.5559 43.2265C19.3736 43.2265 19.2245 43.3425 19.2245 43.4751C19.2245 43.6076 19.1085 43.7236 18.9759 43.7236C18.8433 43.7236 18.7273 43.8728 18.7273 44.0551C18.7273 44.2374 18.6113 44.3866 18.4787 44.3866C18.313 44.3866 18.2301 44.5689 18.2301 44.9666C18.2301 45.4306 18.1638 45.5467 17.8986 45.5467C17.7163 45.5467 17.5672 45.6627 17.5672 45.7952C17.5672 46.0107 17.0203 46.0438 13.6726 46.0438C10.3249 46.0438 9.77796 46.0107 9.77796 45.7952C9.77796 45.5964 9.49622 45.5467 8.28641 45.5467C7.10974 45.5467 6.79485 45.4969 6.79485 45.3146C6.79485 44.7843 2.58536 44.7346 2.28705 45.2649C2.20418 45.4306 1.93902 45.5467 1.65728 45.5467C1.35897 45.5467 1.1601 45.6295 1.1601 45.7621C1.1601 45.8781 1.01094 46.0936 0.828641 46.2593C0.64634 46.4084 0.497184 46.6902 0.497184 46.8725C0.497184 47.0548 0.381175 47.2039 0.248592 47.2039C0.0331456 47.2039 0 47.6348 0 50.0213C0 52.2918 0.0497184 52.8387 0.232019 52.8387C0.381175 52.8387 0.480612 53.1039 0.546903 53.6176C0.596621 54.0651 0.729204 54.4463 0.894932 54.5291C1.04409 54.612 1.1601 54.8937 1.1601 55.1589C1.1601 55.4903 1.24296 55.6561 1.40869 55.6561C1.54127 55.6561 1.65728 55.8052 1.65728 55.9875C1.65728 56.1698 1.75672 56.319 1.8893 56.319C2.00531 56.319 2.15447 56.4681 2.20418 56.6504C2.2539 56.8327 2.40306 56.9819 2.55221 56.9819C2.73451 56.9819 2.81738 57.1311 2.81738 57.4791C2.81738 57.794 2.90024 57.9763 3.0494 57.9763C3.16541 57.9763 3.31456 58.1254 3.36428 58.3077C3.414 58.49 3.56316 58.6392 3.71231 58.6392C3.86147 58.6392 3.97748 58.7552 3.97748 58.8878C3.97748 59.0204 4.09349 59.1364 4.22607 59.1364C4.35865 59.1364 4.47466 59.2855 4.47466 59.4678C4.47466 59.6833 4.59067 59.7993 4.80612 59.7993C4.98842 59.7993 5.13757 59.9153 5.13757 60.0479C5.13757 60.1805 5.25358 60.2965 5.38616 60.2965C5.51875 60.2965 5.63476 60.4456 5.63476 60.6279C5.63476 60.8102 5.75077 60.9594 5.88335 60.9594C6.01593 60.9594 6.13194 61.0754 6.13194 61.208C6.13194 61.3405 6.2811 61.4566 6.4634 61.4566C6.6457 61.4566 6.79485 61.556 6.79485 61.6886C6.79485 61.8046 6.94401 61.9537 7.12631 62.0035C7.30861 62.0532 7.45777 62.2023 7.45777 62.3515C7.45777 62.5006 7.57378 62.6167 7.70636 62.6167C7.83894 62.6167 7.95495 62.7327 7.95495 62.8652C7.95495 63.031 8.12068 63.1138 8.46871 63.1138C8.83331 63.1138 8.99904 63.1967 9.06533 63.4453C9.11505 63.6276 9.2642 63.7768 9.38021 63.7768C9.5128 63.7768 9.61223 63.8928 9.61223 64.0253C9.61223 64.1911 9.79453 64.2739 10.1923 64.2739C10.6563 64.2739 10.7723 64.3402 10.7723 64.6054C10.7723 64.8706 10.8883 64.9369 11.2695 64.9369C11.601 64.9369 11.7667 65.0197 11.7667 65.1854C11.7667 65.3512 11.949 65.434 12.3467 65.434C12.7279 65.434 12.9268 65.5169 12.9268 65.6661C12.9268 65.8152 13.1754 65.9478 13.5897 66.0141C14.004 66.0804 14.2526 66.213 14.2526 66.3621C14.2526 66.5278 14.4681 66.5941 14.9984 66.5941C15.5122 66.5941 15.7442 66.6604 15.7442 66.8262C15.7442 66.9753 16.0425 67.0747 16.606 67.141C17.07 67.2073 17.5175 67.3399 17.5838 67.4559C17.6832 67.6051 18.2632 67.6879 19.3902 67.7211C20.6829 67.7708 21.0475 67.8371 21.0475 68.0194C21.0475 68.2017 21.4784 68.2514 23.2848 68.2514C25.1575 68.2514 25.5221 68.2183 25.5221 68.0028C25.5221 67.8205 25.721 67.7542 26.3508 67.7542C26.9805 67.7542 27.1794 67.8205 27.1794 68.0028C27.1794 68.1354 27.3286 68.2514 27.5109 68.2514C27.6932 68.2514 27.8423 68.3674 27.8423 68.5C27.8423 68.6326 28.0743 68.7817 28.4224 68.848C28.7373 68.8978 29.0024 69.0469 29.0024 69.1629C29.0024 69.2789 29.3173 69.3949 29.7648 69.4612C30.1957 69.4944 30.5934 69.6435 30.6763 69.7595C30.8752 70.091 37.9186 70.0744 38.1175 69.743C38.2003 69.5938 38.6644 69.4778 39.3439 69.4447C40.1394 69.3949 40.4377 69.3121 40.4377 69.1463C40.4377 68.9972 40.62 68.9143 40.9349 68.9143C41.2166 68.9143 41.4818 68.8149 41.5315 68.6823C41.5812 68.5497 41.8464 68.384 42.1115 68.3343C42.3767 68.268 42.5921 68.1188 42.5921 67.9862C42.5921 67.8537 42.7413 67.7542 42.9236 67.7542C43.1059 67.7542 43.255 67.6548 43.255 67.5222C43.255 67.4062 43.4208 67.257 43.6031 67.2073C44.1334 67.0747 44.9123 67.257 44.9123 67.5222C44.9123 67.7045 45.1941 67.7542 46.0724 67.7542C47.0005 67.7542 47.2325 67.8039 47.2325 68.0028C47.2325 68.1851 47.4314 68.2514 48.0612 68.2514C48.6578 68.2514 48.8898 68.1851 48.8898 68.0194C48.8898 67.8537 49.1881 67.7708 49.9836 67.7211C50.6299 67.6879 51.1271 67.5719 51.1934 67.4393C51.2763 67.3233 51.674 67.1742 52.1049 67.141C52.5524 67.0747 52.8673 66.9587 52.8673 66.8427C52.8673 66.7267 53.1324 66.5776 53.4473 66.5278C53.7954 66.4615 54.0274 66.3124 54.0274 66.1798C54.0274 66.0472 54.1765 65.9312 54.3588 65.9312C54.5411 65.9312 54.6903 65.8152 54.6903 65.6826C54.6903 65.5169 54.856 65.434 55.1875 65.434C55.5189 65.434 55.6847 65.3512 55.6847 65.1854C55.6847 65.0529 55.8338 64.9369 56.0161 64.9369C56.2316 64.9369 56.3476 64.8208 56.3476 64.6054C56.3476 64.3402 56.4636 64.2739 56.8448 64.2739C57.1762 64.2739 57.3419 64.1911 57.3419 64.0253C57.3419 63.8928 57.4911 63.7768 57.6734 63.7768C57.8888 63.7768 58.0049 63.6607 58.0049 63.4453C58.0049 63.2298 58.1209 63.1138 58.3363 63.1138C58.5186 63.1138 58.6678 62.9978 58.6678 62.8652C58.6678 62.7327 58.7838 62.6167 58.9164 62.6167C59.0489 62.6167 59.1649 62.5172 59.1649 62.3846C59.1649 62.2521 59.397 62.1029 59.6621 62.0366C59.9439 61.9703 60.1593 61.8212 60.1593 61.6886C60.1593 61.556 60.3085 61.4566 60.4908 61.4566C60.6896 61.4566 60.8222 61.3405 60.8222 61.1914C60.8222 61.0422 60.9714 60.8931 61.1537 60.8434C61.336 60.7936 61.4851 60.6445 61.4851 60.5285C61.4851 60.3959 61.6012 60.2965 61.7337 60.2965C61.8663 60.2965 61.9823 60.1805 61.9823 60.0479C61.9823 59.9153 62.0983 59.7993 62.2309 59.7993C62.3801 59.7993 62.5292 59.6998 62.5789 59.5673C62.6287 59.4347 62.8938 59.2689 63.159 59.2192C63.4242 59.1529 63.6396 59.0038 63.6396 58.8712C63.6396 58.7386 63.7556 58.6392 63.9048 58.6392C64.0539 58.6392 64.2031 58.49 64.2528 58.3077C64.3025 58.1254 64.4517 57.9763 64.5677 57.9763C64.7003 57.9763 64.7997 57.8603 64.7997 57.7277C64.7997 57.5951 64.9489 57.4791 65.1312 57.4791C65.3135 57.4791 65.4626 57.3631 65.4626 57.2305C65.4626 57.0979 65.5786 56.9819 65.7112 56.9819C65.8438 56.9819 65.9598 56.8327 65.9598 56.6504C65.9598 56.435 66.0758 56.319 66.2913 56.319C66.4736 56.319 66.6227 56.203 66.6227 56.0704C66.6227 55.9378 66.7387 55.8218 66.8713 55.8218C67.0039 55.8218 67.1199 55.6726 67.1199 55.4903C67.1199 55.2749 67.2359 55.1589 67.4514 55.1589C67.6337 55.1589 67.7828 55.0429 67.7828 54.9103C67.7828 54.7777 67.8988 54.6617 68.0314 54.6617C68.164 54.6617 68.28 54.5457 68.28 54.4131C68.28 54.2805 68.396 54.1645 68.5452 54.1645C68.6943 54.1645 68.8435 54.0154 68.8932 53.8331C68.9429 53.6508 69.0921 53.5016 69.2081 53.5016C69.3407 53.5016 69.4401 53.4022 69.4401 53.2696C69.4401 53.137 69.6555 52.9879 69.9207 52.9216C70.2853 52.8387 70.4345 52.6895 70.5173 52.3249C70.5836 52.0598 70.7328 51.8443 70.8654 51.8443C70.9979 51.8443 71.0974 51.6952 71.0974 51.5129C71.0974 51.3306 71.1968 51.1814 71.3294 51.1814C71.462 51.1814 71.6277 50.9494 71.6774 50.6511C71.7437 50.3528 71.8763 50.0545 71.9923 49.9882C72.2409 49.8224 72.2243 48.4966 71.9592 48.3972C71.8597 48.364 71.7603 48.132 71.7603 47.9C71.7603 47.2039 71.578 46.7068 71.3294 46.7068C71.1637 46.7068 71.0974 46.4582 71.0974 45.7952C71.0974 45.1158 71.1637 44.8837 71.3294 44.8837C71.462 44.8837 71.6111 44.6517 71.6774 44.3866C71.7437 44.1048 71.8929 43.8894 72.0255 43.8894C72.158 43.8894 72.2575 43.7402 72.2575 43.5579C72.2575 43.3756 72.3569 43.2265 72.4895 43.2265C72.6221 43.2265 72.7712 42.9779 72.8209 42.6464C72.8872 42.2984 73.0364 42.0664 73.169 42.0664C73.3347 42.0664 73.4176 41.8841 73.4176 41.4863C73.4176 41.0886 73.5004 40.9063 73.6662 40.9063C73.8319 40.9063 73.9147 40.7405 73.9147 40.4091C73.9147 40.1439 74.0308 39.8622 74.1799 39.7793C74.3125 39.6965 74.4782 39.3319 74.5279 38.9507C74.5942 38.5198 74.7103 38.2546 74.8428 38.2546C74.992 38.2546 75.0749 38.0557 75.0749 37.6746C75.0749 37.31 75.1743 37.0448 75.3234 36.9951C75.456 36.9454 75.6052 36.6471 75.6715 36.3322C75.7212 36.0173 75.8703 35.7687 76.0029 35.7687C76.1687 35.7687 76.2349 35.5533 76.2349 35.0229C76.2349 34.4926 76.3012 34.2771 76.467 34.2771C76.6161 34.2771 76.7487 34.0286 76.815 33.6142C76.8813 33.1999 77.0139 32.9513 77.163 32.9513C77.3288 32.9513 77.395 32.7193 77.395 32.1227C77.395 31.4929 77.4613 31.294 77.6436 31.294C77.8425 31.294 77.8922 31.0786 77.8922 30.3825C77.8922 29.6865 77.8425 29.471 77.6436 29.471C77.4779 29.471 77.395 29.3053 77.395 28.9738C77.395 28.6424 77.3122 28.4767 77.1465 28.4767C76.815 28.4767 76.6658 27.532 76.815 26.2559C76.8813 25.5598 77.0139 25.1621 77.163 25.0958C77.3453 25.0295 77.395 24.6649 77.395 23.5877C77.395 22.5104 77.4448 22.179 77.6105 22.179C77.7928 22.179 77.8591 21.5161 77.9419 19.0964C78.0745 14.9532 77.9254 11.2409 77.6105 11.2409C77.4613 11.2409 77.395 10.9592 77.395 10.1637C77.395 9.33506 77.3453 9.08647 77.1465 9.08647C77.0139 9.08647 76.8647 8.85445 76.7984 8.50642C76.7487 8.17496 76.5995 7.92637 76.467 7.92637C76.3178 7.92637 76.2349 7.7275 76.2349 7.34632C76.2349 6.94857 76.1521 6.76627 75.9864 6.76627C75.8538 6.76627 75.7046 6.53425 75.6383 6.18623C75.5886 5.85477 75.4395 5.60618 75.3069 5.60618C75.1743 5.60618 75.0749 5.49017 75.0749 5.35758C75.0749 5.225 74.9588 5.10899 74.8263 5.10899C74.6937 5.10899 74.5777 5.02613 74.5777 4.92669C74.5777 4.6781 73.8816 3.94889 73.633 3.94889C73.517 3.94889 73.4176 3.86603 73.4176 3.76659C73.4176 3.518 72.7215 2.7888 72.4729 2.7888C72.3569 2.7888 72.2575 2.67279 72.2575 2.54021C72.2575 2.40762 72.1083 2.29161 71.926 2.29161C71.7437 2.29161 71.5946 2.17561 71.5946 2.04302C71.5946 1.91044 71.3625 1.76128 71.0145 1.69499C70.6831 1.64527 70.4345 1.49612 70.4345 1.36353C70.4345 1.19781 70.219 1.13152 69.6887 1.13152C69.1584 1.13152 68.9429 1.06522 68.9429 0.899498C68.9429 0.684052 68.2634 0.468605 67.5342 0.468605C67.3188 0.468605 67.1199 0.369164 67.0868 0.26973C67.0039 0.0542831 64.6837 -0.0948715 64.1036 0.0708542ZM67.1033 3.10368C67.1862 3.21969 67.5839 3.36884 68.0148 3.40199C68.512 3.46828 68.7772 3.56772 68.7772 3.71687C68.7772 3.86603 68.9761 3.94889 69.3572 3.94889C69.8213 3.94889 69.9373 4.01518 69.9373 4.28035C69.9373 4.4958 70.0533 4.61181 70.2687 4.61181C70.451 4.61181 70.6002 4.72781 70.6002 4.8604C70.6002 5.02613 70.7659 5.10899 71.0974 5.10899C71.3957 5.10899 71.5946 5.19186 71.5946 5.32444C71.5946 5.44044 71.7437 5.65589 71.926 5.82162C72.1083 5.97078 72.2575 6.25251 72.2575 6.43482C72.2575 6.63369 72.3735 6.76627 72.5226 6.76627C72.6718 6.76627 72.8209 6.91543 72.8707 7.09773C72.9204 7.28003 73.0695 7.42918 73.1855 7.42918C73.3181 7.42918 73.4176 7.5452 73.4176 7.67778C73.4176 7.81036 73.5336 7.92637 73.6662 7.92637C73.8319 7.92637 73.9147 8.10867 73.9147 8.50642C73.9147 8.88759 73.9976 9.08647 74.1468 9.08647C74.3622 9.08647 74.5777 9.76595 74.5777 10.5117C74.5777 10.7437 74.6771 10.9095 74.8097 10.9095C74.9754 10.9095 75.0583 11.2906 75.108 12.517C75.1577 13.5611 75.2406 14.1412 75.3732 14.1909C75.5223 14.2406 75.572 14.887 75.572 16.4614C75.572 18.2678 75.5223 18.6821 75.3234 18.765C75.1246 18.8313 75.0749 19.2125 75.0749 20.7703C75.0749 22.3613 75.0251 22.6762 74.8263 22.6762C74.6274 22.6762 74.5777 22.9082 74.5777 23.8363V24.9964H73.9976C73.6496 24.9964 73.4176 24.9135 73.4176 24.7809C73.4176 24.5323 72.6884 23.8363 72.4398 23.8363C72.3403 23.8363 72.2575 23.7203 72.2575 23.5877C72.2575 23.4551 72.1083 23.3391 71.926 23.3391C71.7437 23.3391 71.5946 23.2231 71.5946 23.0905C71.5946 22.9579 71.4785 22.8419 71.346 22.8419C71.2134 22.8419 71.0974 22.6927 71.0974 22.5104C71.0974 22.2453 70.9814 22.179 70.5173 22.179C70.1196 22.179 69.9373 22.0961 69.9373 21.9304C69.9373 21.7978 69.8378 21.6818 69.7053 21.6818C69.5892 21.6818 69.4401 21.5326 69.3904 21.3503C69.3241 21.1018 69.1584 21.0189 68.7938 21.0189C68.4623 21.0189 68.28 20.936 68.28 20.7869C68.28 20.6709 68.1308 20.5217 67.9485 20.472C67.7662 20.4223 67.6171 20.2731 67.6171 20.124C67.6171 19.9417 67.4679 19.8588 67.1199 19.8588C66.7884 19.8588 66.6227 19.7759 66.6227 19.6102C66.6227 19.4776 66.4736 19.3616 66.2913 19.3616C66.109 19.3616 65.9598 19.2456 65.9598 19.113C65.9598 18.9804 65.7278 18.8313 65.3798 18.765C65.0483 18.7153 64.7997 18.5661 64.7997 18.4335C64.7997 18.2844 64.6008 18.2015 64.2197 18.2015C63.8219 18.2015 63.6396 18.1187 63.6396 17.9529C63.6396 17.8203 63.4076 17.6712 63.0596 17.6049C62.7281 17.5552 62.4795 17.406 62.4795 17.2734C62.4795 17.1077 62.2641 17.0414 61.7337 17.0414C61.1868 17.0414 60.988 16.9751 60.988 16.7928C60.988 16.6602 60.8388 16.5442 60.6565 16.5442C60.4411 16.5442 60.325 16.4282 60.325 16.2128C60.325 16.0305 60.4411 15.8813 60.5736 15.8813C60.7394 15.8813 60.8222 15.699 60.8222 15.3013C60.8222 14.9201 60.9051 14.7212 61.0542 14.7212C61.336 14.7212 61.4851 14.2075 61.4851 13.2628C61.4851 12.7491 61.5514 12.5668 61.7337 12.5668C61.9492 12.5668 61.9823 12.1027 61.9823 9.41792C61.9823 6.73313 62.0155 6.26909 62.2309 6.26909C62.4132 6.26909 62.4795 6.08679 62.4795 5.62275C62.4795 4.64495 62.6618 3.94889 62.9104 3.94889C63.043 3.94889 63.1424 3.83289 63.1424 3.7003C63.1424 3.56772 63.2916 3.45171 63.4739 3.45171C63.6562 3.45171 63.9379 3.30255 64.1036 3.10368C64.3522 2.80537 64.5345 2.77222 65.6781 2.82195C66.5233 2.85509 67.0205 2.95453 67.1033 3.10368ZM58.0049 18.4501C58.0049 18.6158 58.1872 18.6987 58.5849 18.6987C58.9661 18.6987 59.1649 18.7816 59.1649 18.9307C59.1649 19.1793 59.6621 19.3616 60.3748 19.3616C60.6565 19.3616 60.8222 19.4445 60.8222 19.6102C60.8222 19.7759 61.0045 19.8588 61.4023 19.8588C61.8663 19.8588 61.9823 19.9251 61.9823 20.1903C61.9823 20.4554 62.0983 20.5217 62.5624 20.5217C62.9601 20.5217 63.1424 20.6046 63.1424 20.7703C63.1424 20.936 63.3247 21.0189 63.7225 21.0189C64.1865 21.0189 64.3025 21.0852 64.3025 21.3503C64.3025 21.6155 64.4185 21.6818 64.7997 21.6818C65.1312 21.6818 65.2969 21.7647 65.2969 21.9304C65.2969 22.063 65.446 22.179 65.6283 22.179C65.8106 22.179 65.9598 22.2784 65.9598 22.411C65.9598 22.5436 66.2084 22.6927 66.5398 22.7425C66.8879 22.8088 67.1199 22.9579 67.1199 23.0905C67.1199 23.2231 67.2691 23.3391 67.4514 23.3391C67.6337 23.3391 67.7828 23.4385 67.7828 23.5711C67.7828 23.7037 68.0148 23.8528 68.28 23.9191C68.5617 23.9854 68.7772 24.1346 68.7772 24.2672C68.7772 24.3997 68.9263 24.4992 69.1086 24.4992C69.2909 24.4992 69.4401 24.6152 69.4401 24.7478C69.4401 24.8804 69.5561 24.9964 69.6887 24.9964C69.8213 24.9964 69.9373 25.0958 69.9373 25.2284C69.9373 25.3444 70.0864 25.4936 70.2687 25.5433C70.451 25.593 70.6002 25.7421 70.6002 25.8913C70.6002 26.0405 70.7162 26.1565 70.8488 26.1565C70.9814 26.1565 71.0974 26.2559 71.0974 26.3885C71.0974 26.5211 71.346 26.6702 71.6774 26.7199C72.0255 26.7862 72.2575 26.9354 72.2575 27.068C72.2575 27.2006 72.3735 27.3166 72.5061 27.3166C72.6386 27.3166 72.7547 27.416 72.7547 27.5154C72.7547 27.7806 73.4839 28.4767 73.7325 28.4767C73.8319 28.4767 73.9147 28.5595 73.9147 28.659C73.9147 28.9076 74.6108 29.6368 74.876 29.6368C75.0086 29.6368 75.0749 29.9185 75.0749 30.4654C75.0749 31.0952 75.0086 31.294 74.8263 31.294C74.6605 31.294 74.5777 31.4763 74.5777 31.8741C74.5777 32.2553 74.4948 32.4541 74.3456 32.4541C74.0971 32.4541 73.9147 32.9513 73.9147 33.6474C73.9147 33.9457 73.8319 34.1114 73.6662 34.1114C73.5004 34.1114 73.4176 34.2937 73.4176 34.6915C73.4176 35.0726 73.3347 35.2715 73.1855 35.2715C72.937 35.2715 72.7547 35.7687 72.7547 36.4648C72.7547 36.7631 72.6718 36.9288 72.5061 36.9288C72.3403 36.9288 72.2575 37.1111 72.2575 37.5088C72.2575 37.89 72.1746 38.0889 72.0255 38.0889C71.8929 38.0889 71.7437 38.3375 71.694 38.6689C71.6277 39.017 71.4785 39.249 71.346 39.249C71.1802 39.249 71.0974 39.4313 71.0974 39.829C71.0974 40.2268 71.0145 40.4091 70.8488 40.4091C70.6831 40.4091 70.6002 40.5748 70.6002 40.9228C70.6002 41.2874 70.5173 41.4532 70.2687 41.5195C70.0201 41.5858 69.9373 41.7515 69.9373 42.1658C69.9373 42.6796 69.8876 42.7293 69.4401 42.7293C69.0258 42.7293 68.9429 42.663 68.8435 42.1492C68.7938 41.8178 68.6446 41.5692 68.512 41.5692C68.3629 41.5692 68.28 41.3703 68.28 40.9891C68.28 40.608 68.1971 40.4091 68.048 40.4091C67.932 40.4091 67.7828 40.2599 67.7331 40.0776C67.6834 39.8953 67.5342 39.7462 67.3851 39.7462C67.2028 39.7462 67.1199 39.597 67.1199 39.249C67.1199 38.9341 67.037 38.7518 66.8879 38.7518C66.7553 38.7518 66.6061 38.5032 66.5564 38.1718C66.4901 37.8237 66.341 37.5917 66.2084 37.5917C66.0758 37.5917 65.9598 37.4426 65.9598 37.2603C65.9598 37.0779 65.8438 36.9288 65.7112 36.9288C65.5786 36.9288 65.4626 36.8294 65.4626 36.7133C65.4626 36.5973 65.3135 36.3819 65.1312 36.2162C64.9489 36.067 64.7997 35.7853 64.7997 35.603C64.7997 35.4207 64.6837 35.2715 64.5511 35.2715C64.4185 35.2715 64.3025 35.1555 64.3025 35.0229C64.3025 34.8903 64.1865 34.7743 64.0539 34.7743C63.9213 34.7743 63.8053 34.6583 63.8053 34.5092C63.8053 34.36 63.6562 34.2109 63.4739 34.1611C63.2419 34.0948 63.1424 33.9291 63.1424 33.5977C63.1424 33.2662 63.0596 33.117 62.8773 33.117C62.7281 33.117 62.5789 32.9679 62.5292 32.7856C62.4795 32.6033 62.3304 32.4541 62.2143 32.4541C62.0818 32.4541 61.9823 32.305 61.9823 32.1227C61.9823 31.9404 61.8663 31.7912 61.7337 31.7912C61.6012 31.7912 61.4851 31.6752 61.4851 31.5426C61.4851 31.41 61.336 31.294 61.1537 31.294C60.9714 31.294 60.8222 31.178 60.8222 31.0454C60.8222 30.9129 60.7228 30.7969 60.5902 30.7969C60.4742 30.7969 60.325 30.6477 60.2753 30.4654C60.2256 30.2831 60.0765 30.1339 59.9273 30.1339C59.7781 30.1339 59.6621 30.0179 59.6621 29.8853C59.6621 29.7528 59.5627 29.6368 59.4467 29.6368C59.3307 29.6368 59.1152 29.4876 58.9495 29.3053C58.8003 29.123 58.5186 28.9738 58.3363 28.9738C58.154 28.9738 58.0049 28.8578 58.0049 28.7253C58.0049 28.5927 57.8888 28.4767 57.7563 28.4767C57.6237 28.4767 57.5077 28.3606 57.5077 28.2115C57.5077 28.0623 57.3585 27.9132 57.1762 27.8635C56.9939 27.8137 56.8448 27.6646 56.8448 27.5486C56.8448 27.416 56.7287 27.3166 56.5962 27.3166C56.447 27.3166 56.2979 27.2171 56.2481 27.0845C56.1984 26.952 55.9333 26.7862 55.6681 26.7365C55.4029 26.6702 55.1875 26.5211 55.1875 26.3885C55.1875 26.2559 55.0715 26.1565 54.9389 26.1565C54.8063 26.1565 54.6903 26.0405 54.6903 25.9079C54.6903 25.7753 54.5411 25.6593 54.3588 25.6593C54.1434 25.6593 54.0274 25.5433 54.0274 25.3278C54.0274 25.0792 53.9114 24.9964 53.5468 24.9964C53.1822 24.9964 53.0496 24.8969 52.9667 24.582C52.8341 24.0351 53.0164 23.3391 53.2982 23.3391C53.4308 23.3391 53.5302 23.2231 53.5302 23.0905C53.5302 22.9579 53.6462 22.8419 53.7788 22.8419C53.9114 22.8419 54.0274 22.6927 54.0274 22.5104C54.0274 22.3281 54.1268 22.179 54.2594 22.179C54.392 22.179 54.5411 21.9635 54.6074 21.6984C54.6571 21.4332 54.8229 21.168 54.9555 21.1183C55.088 21.0686 55.1875 20.9195 55.1875 20.7703C55.1875 20.6377 55.3035 20.5217 55.4361 20.5217C55.6018 20.5217 55.6847 20.356 55.6847 19.9582C55.6847 19.5439 55.7675 19.3782 56.0161 19.3119C56.2647 19.2456 56.3476 19.0799 56.3476 18.7153C56.3476 18.2015 56.3641 18.2015 57.1762 18.2015C57.806 18.2015 58.0049 18.2678 58.0049 18.4501ZM48.3926 25.3113C48.3926 25.3941 48.7738 25.4936 49.2213 25.5598C49.7847 25.6427 50.0499 25.7421 50.0499 25.9079C50.0499 26.0405 50.1991 26.1565 50.3814 26.1565C50.5637 26.1565 50.7128 26.2559 50.7128 26.3885C50.7128 26.5211 50.9448 26.6702 51.21 26.7365C51.4917 26.8028 51.7072 26.952 51.7072 27.0845C51.7072 27.2171 51.8563 27.3166 52.0386 27.3166C52.2209 27.3166 52.3701 27.4326 52.3701 27.5652C52.3701 27.6977 52.4861 27.8137 52.6187 27.8137C52.7513 27.8137 52.8673 27.9298 52.8673 28.0623C52.8673 28.1949 53.0993 28.3441 53.4473 28.4104C53.7788 28.4601 54.0274 28.6092 54.0274 28.7418C54.0274 28.8744 54.1434 28.9738 54.276 28.9738C54.4086 28.9738 54.5246 29.0899 54.5246 29.239C54.5246 29.3882 54.6737 29.5373 54.856 29.587C55.0383 29.6368 55.1875 29.7859 55.1875 29.9019C55.1875 30.0345 55.3366 30.1339 55.5189 30.1339C55.7012 30.1339 55.8504 30.2334 55.8504 30.366C55.8504 30.4985 56.0824 30.6477 56.3476 30.714C56.6293 30.7803 56.8448 30.9294 56.8448 31.062C56.8448 31.1946 56.9442 31.294 57.0768 31.294C57.1928 31.294 57.3419 31.4432 57.3917 31.6255C57.4414 31.8078 57.5905 31.957 57.7397 31.957C57.8888 31.957 58.0049 32.073 58.0049 32.2055C58.0049 32.3381 58.1209 32.4541 58.2534 32.4541C58.386 32.4541 58.502 32.5701 58.502 32.7027C58.502 32.8353 58.6512 32.9513 58.8335 32.9513C59.0489 32.9513 59.1649 33.0673 59.1649 33.2828C59.1649 33.4651 59.281 33.6142 59.4135 33.6142C59.5461 33.6142 59.6621 33.7302 59.6621 33.8628C59.6621 33.9954 59.8113 34.1114 59.9936 34.1114C60.209 34.1114 60.325 34.2274 60.325 34.4429C60.325 34.6252 60.4411 34.7743 60.5736 34.7743C60.7062 34.7743 60.8222 34.8903 60.8222 35.0229C60.8222 35.1555 60.9382 35.2715 61.0708 35.2715C61.2034 35.2715 61.3526 35.5035 61.4188 35.8516C61.4686 36.183 61.6177 36.4316 61.7503 36.4316C61.8829 36.4316 61.9823 36.5476 61.9823 36.6802C61.9823 36.8128 62.0818 36.9288 62.2143 36.9288C62.3304 36.9288 62.4795 37.0779 62.5292 37.2603C62.5789 37.4426 62.7281 37.5917 62.8773 37.5917C63.0596 37.5917 63.1424 37.7409 63.1424 38.0889C63.1424 38.4203 63.2253 38.5861 63.391 38.5861C63.5236 38.5861 63.6396 38.7352 63.6396 38.9175C63.6396 39.133 63.7556 39.249 63.9711 39.249C64.2362 39.249 64.3025 39.365 64.3025 39.829C64.3025 40.2268 64.3854 40.4091 64.5511 40.4091C64.6837 40.4091 64.7997 40.5085 64.7997 40.6245C64.7997 40.7405 64.9489 40.956 65.1312 41.1217C65.3135 41.2709 65.4626 41.5526 65.4626 41.7349C65.4626 41.9172 65.5786 42.0664 65.7112 42.0664C65.8769 42.0664 65.9598 42.2487 65.9598 42.6464C65.9598 43.1105 66.0261 43.2265 66.2913 43.2265C66.5067 43.2265 66.6227 43.3425 66.6227 43.5579C66.6227 43.7402 66.7387 43.8894 66.8713 43.8894C67.037 43.8894 67.1199 44.0717 67.1199 44.4694C67.1199 44.8672 67.2028 45.0495 67.3519 45.0495C67.4845 45.0495 67.6337 45.2649 67.6999 45.5467C67.7662 45.8118 67.9154 46.0438 68.048 46.0438C68.1971 46.0438 68.28 46.2261 68.28 46.6239C68.28 47.0051 68.3629 47.2039 68.512 47.2039C68.6446 47.2039 68.7938 47.4525 68.8435 47.784C68.9098 48.132 69.0589 48.364 69.1915 48.364C69.3572 48.364 69.4401 48.5463 69.4401 48.9441C69.4401 49.3418 69.3572 49.5241 69.2081 49.5241C69.0755 49.5241 68.9263 49.7562 68.86 50.0213C68.7938 50.3031 68.6446 50.5185 68.512 50.5185C68.3794 50.5185 68.28 50.6677 68.28 50.85C68.28 51.0654 68.164 51.1814 67.9485 51.1814C67.7662 51.1814 67.6171 51.2974 67.6171 51.43C67.6171 51.5626 67.5011 51.6786 67.3685 51.6786C67.2359 51.6786 67.1199 51.8278 67.1199 52.0101C67.1199 52.2586 67.0039 52.3415 66.6393 52.3415C66.3078 52.3415 66.1421 52.4409 66.0758 52.673C66.0261 52.8553 65.8769 53.0044 65.7278 53.0044C65.5786 53.0044 65.4626 53.1204 65.4626 53.253C65.4626 53.3856 65.3632 53.5016 65.2306 53.5016C65.1146 53.5016 64.9654 53.6508 64.9157 53.8331C64.866 54.0154 64.7168 54.1645 64.5677 54.1645C64.4185 54.1645 64.3025 54.2805 64.3025 54.4131C64.3025 54.5457 64.1534 54.6617 63.9711 54.6617C63.7888 54.6617 63.6396 54.7777 63.6396 54.9103C63.6396 55.0429 63.5236 55.1589 63.391 55.1589C63.2584 55.1589 63.1424 55.308 63.1424 55.4903C63.1424 55.7058 63.0264 55.8218 62.811 55.8218C62.6287 55.8218 62.4795 55.9378 62.4795 56.0704C62.4795 56.203 62.3635 56.319 62.2309 56.319C62.0983 56.319 61.9823 56.4184 61.9823 56.551C61.9823 56.667 61.8332 56.8162 61.6509 56.8659C61.4686 56.9156 61.3194 57.0648 61.3194 57.2139C61.3194 57.3962 61.1703 57.4791 60.8222 57.4791C60.5405 57.4791 60.325 57.5619 60.325 57.678C60.325 57.9431 59.5958 58.6392 59.3472 58.6392C59.2478 58.6392 59.1649 58.7552 59.1649 58.8878C59.1649 59.0204 59.0489 59.1364 58.9164 59.1364C58.7672 59.1364 58.618 59.2524 58.5683 59.385C58.502 59.5175 58.3695 59.6335 58.2369 59.6335C58.1043 59.6335 58.0049 59.7827 58.0049 59.965C58.0049 60.2302 57.8888 60.2965 57.5077 60.2965C57.1596 60.2965 57.0105 60.3793 57.0105 60.5616C57.0105 60.7108 56.8613 60.8599 56.679 60.9097C56.4967 60.9594 56.3476 61.1085 56.3476 61.2245C56.3476 61.3571 56.1984 61.4566 56.0161 61.4566C55.8338 61.4566 55.6847 61.556 55.6847 61.6886C55.6847 61.8212 55.4692 61.9703 55.1875 62.0366C54.9223 62.1029 54.6903 62.2521 54.6903 62.3846C54.6903 62.5172 54.5411 62.6167 54.3588 62.6167C54.1765 62.6167 54.0274 62.7327 54.0274 62.8652C54.0274 62.9978 53.8782 63.1138 53.6959 63.1138C53.5136 63.1138 53.2319 63.263 53.0827 63.4453C52.917 63.6276 52.6684 63.7768 52.5027 63.7768C52.3369 63.7768 52.2044 63.8928 52.2044 64.0253C52.2044 64.1911 52.0386 64.2739 51.7072 64.2739C51.3923 64.2739 51.21 64.3568 51.21 64.506C51.21 64.7214 50.5305 64.9369 49.7847 64.9369C49.5361 64.9369 49.387 65.0363 49.387 65.1854C49.387 65.3843 49.1218 65.434 47.9783 65.434C46.8348 65.434 46.5696 65.3843 46.5696 65.1854C46.5696 65.0197 46.4039 64.9369 46.1221 64.9369C45.4095 64.9369 44.9123 64.7545 44.9123 64.506C44.9123 64.3734 44.7632 64.2739 44.5809 64.2739C44.3986 64.2739 44.2494 64.1579 44.2494 64.0253C44.2494 63.8928 44.1334 63.7768 44.0008 63.7768C43.8682 63.7768 43.7522 63.6773 43.7522 63.5447C43.7522 63.4287 43.6031 63.2796 43.4208 63.2298C43.2385 63.1801 43.0893 63.031 43.0893 62.8818C43.0893 62.7327 42.9733 62.6167 42.8407 62.6167C42.7081 62.6167 42.5921 62.5006 42.5921 62.3681C42.5921 62.2355 42.4761 62.1195 42.3435 62.1195C42.211 62.1195 42.0949 61.9703 42.0949 61.788C42.0949 61.6057 41.9955 61.4566 41.8629 61.4566C41.7469 61.4566 41.5978 61.3074 41.548 61.1251C41.4983 60.9428 41.3492 60.7936 41.2 60.7936C41.0177 60.7936 40.9349 60.6445 40.9349 60.2965C40.9349 59.9816 40.852 59.7993 40.7028 59.7993C40.5703 59.7993 40.4211 59.5507 40.3714 59.2192C40.3051 58.8712 40.1559 58.6392 40.0233 58.6392C39.8908 58.6392 39.7748 58.49 39.7748 58.3077C39.7748 58.1254 39.6587 57.9763 39.5262 57.9763C39.3604 57.9763 39.2776 57.8105 39.2776 57.4957C39.2776 57.1642 39.1781 56.9985 38.9461 56.9322C38.6975 56.8659 38.6147 56.7002 38.6147 56.3356C38.6147 55.9875 38.5318 55.8218 38.3661 55.8218C38.2335 55.8218 38.1175 55.6726 38.1175 55.4903C38.1175 55.308 38.0015 55.1589 37.8689 55.1589C37.7363 55.1589 37.5871 54.9269 37.5209 54.5788C37.4711 54.2474 37.322 53.9988 37.1894 53.9988C37.0402 53.9988 36.9574 53.8165 36.9574 53.5016C36.9574 53.1867 36.8745 53.0044 36.7254 53.0044C36.5928 53.0044 36.4436 52.7558 36.3939 52.4244C36.3276 52.0763 36.1785 51.8443 36.0459 51.8443C35.9133 51.8443 35.7973 51.6952 35.7973 51.5129C35.7973 51.3306 35.6813 51.1814 35.5487 51.1814C35.383 51.1814 35.3001 50.9991 35.3001 50.6014C35.3001 50.1373 35.2338 50.0213 34.9686 50.0213C34.7035 50.0213 34.6372 49.9053 34.6372 49.5241C34.6372 49.1927 34.5543 49.0269 34.3886 49.0269C34.256 49.0269 34.14 48.8778 34.14 48.6955C34.14 48.5132 34.024 48.364 33.8914 48.364C33.7588 48.364 33.6097 48.132 33.5434 47.784C33.4937 47.4525 33.3445 47.2039 33.2119 47.2039C33.0793 47.2039 32.9799 47.0548 32.9799 46.8725C32.9799 46.6902 32.8805 46.541 32.7479 46.541C32.6153 46.541 32.4661 46.3256 32.3999 46.0438C32.3336 45.7787 32.1844 45.5467 32.0518 45.5467C31.9027 45.5467 31.8198 45.3644 31.8198 44.9666C31.8198 44.5689 31.7369 44.3866 31.5712 44.3866C31.4386 44.3866 31.2895 44.1545 31.2232 43.8065C31.1735 43.4751 31.0243 43.2265 30.8917 43.2265C30.7426 43.2265 30.6597 43.0276 30.6597 42.6464C30.6597 42.2487 30.5768 42.0664 30.4111 42.0664C30.1957 42.0664 30.1625 41.7018 30.1625 39.829C30.1625 38.0226 30.2122 37.5917 30.3945 37.5917C30.5271 37.5917 30.6763 37.3431 30.726 37.0117C30.7923 36.6636 30.9414 36.4316 31.074 36.4316C31.2066 36.4316 31.3226 36.3156 31.3226 36.183C31.3226 36.0504 31.4386 35.9344 31.5712 35.9344C31.7038 35.9344 31.8198 35.7853 31.8198 35.603C31.8198 35.3875 31.9358 35.2715 32.1513 35.2715C32.3336 35.2715 32.4827 35.1721 32.4827 35.0395C32.4827 34.9069 32.7147 34.7578 32.9799 34.6915C33.2616 34.6252 33.4771 34.476 33.4771 34.3434C33.4771 34.2109 33.6262 34.1114 33.8085 34.1114C33.9908 34.1114 34.14 33.9954 34.14 33.8628C34.14 33.7302 34.256 33.6142 34.3886 33.6142C34.5212 33.6142 34.6372 33.4982 34.6372 33.3491C34.6372 33.1999 34.7863 33.0508 34.9686 33.001C35.1509 32.9513 35.3001 32.8022 35.3001 32.6862C35.3001 32.5536 35.4492 32.4541 35.6315 32.4541C35.8139 32.4541 36.0956 32.305 36.2447 32.1227C36.4105 31.9404 36.6259 31.7912 36.7419 31.7912C36.8579 31.7912 36.9574 31.6752 36.9574 31.5426C36.9574 31.41 37.0734 31.294 37.206 31.294C37.3386 31.294 37.4546 31.178 37.4546 31.0454C37.4546 30.9129 37.6037 30.7969 37.786 30.7969C37.9683 30.7969 38.1175 30.6808 38.1175 30.5483C38.1175 30.4157 38.3495 30.2665 38.6975 30.2002C39.029 30.1505 39.2776 30.0014 39.2776 29.8688C39.2776 29.7362 39.377 29.6368 39.5096 29.6368C39.6256 29.6368 39.7748 29.4876 39.8245 29.3053C39.8908 29.0567 40.0565 28.9738 40.4211 28.9738C40.7691 28.9738 40.9349 28.891 40.9349 28.7253C40.9349 28.5927 41.0509 28.4767 41.1834 28.4767C41.3326 28.4767 41.4818 28.3772 41.5315 28.2446C41.5812 28.1121 41.8464 27.9463 42.1115 27.8966C42.3767 27.8303 42.5921 27.6812 42.5921 27.5486C42.5921 27.416 42.7413 27.3166 42.9236 27.3166C43.1059 27.3166 43.255 27.2171 43.255 27.0845C43.255 26.952 43.5036 26.8028 43.8351 26.7531C44.1831 26.6868 44.4151 26.5376 44.4151 26.4051C44.4151 26.2228 44.6306 26.1565 45.2438 26.1565C45.857 26.1565 46.0724 26.0902 46.0724 25.9079C46.0724 25.7421 46.3376 25.6427 46.9011 25.5598C47.3651 25.4936 47.7297 25.3941 47.7297 25.3113C47.7297 25.2284 47.8789 25.1621 48.0612 25.1621C48.2435 25.1621 48.3926 25.2284 48.3926 25.3113ZM27.8423 43.2265C27.8423 43.5413 27.9252 43.7236 28.0743 43.7236C28.2069 43.7236 28.3561 43.9722 28.4058 44.2871C28.4721 44.602 28.6213 44.9003 28.7538 44.95C28.903 44.9998 29.0024 45.2483 29.0024 45.5467C29.0024 45.8615 29.0853 46.0438 29.2344 46.0438C29.367 46.0438 29.5162 46.2924 29.5659 46.6239C29.6322 46.9719 29.7813 47.2039 29.9139 47.2039C30.0465 47.2039 30.1625 47.3531 30.1625 47.5354C30.1625 47.7177 30.262 47.8668 30.3945 47.8668C30.5271 47.8668 30.6763 48.0823 30.7426 48.3475C30.7923 48.6126 30.958 48.8778 31.0906 48.9275C31.2232 48.9772 31.3226 49.1264 31.3226 49.2755C31.3226 49.4081 31.4386 49.5241 31.5712 49.5241C31.7369 49.5241 31.8198 49.7064 31.8198 50.1042C31.8198 50.5019 31.9027 50.6842 32.0518 50.6842C32.1844 50.6842 32.3336 50.8997 32.3999 51.1814C32.4661 51.4466 32.6153 51.6786 32.7479 51.6786C32.8805 51.6786 32.9799 51.8278 32.9799 52.0101C32.9799 52.1924 33.0793 52.3415 33.2119 52.3415C33.3445 52.3415 33.4937 52.5901 33.5434 52.9216C33.6097 53.2696 33.7588 53.5016 33.8914 53.5016C34.0571 53.5016 34.14 53.6673 34.14 53.9988C34.14 54.3302 34.2229 54.496 34.3886 54.496C34.5212 54.496 34.6372 54.6286 34.6372 54.7943C34.6372 54.96 34.7863 55.2086 34.9686 55.3743C35.1509 55.5235 35.3001 55.8052 35.3001 55.9875C35.3001 56.1698 35.4161 56.319 35.5487 56.319C35.7144 56.319 35.7973 56.5013 35.7973 56.899C35.7973 57.2968 35.8801 57.4791 36.0459 57.4791C36.1785 57.4791 36.3276 57.7111 36.3939 58.0591C36.4436 58.3906 36.5928 58.6392 36.7254 58.6392C36.8579 58.6392 36.9574 58.7883 36.9574 58.9706C36.9574 59.1529 37.0734 59.3021 37.206 59.3021C37.3717 59.3021 37.4546 59.4678 37.4546 59.7993C37.4546 60.1805 37.5209 60.2965 37.786 60.2965C38.0512 60.2965 38.1175 60.4125 38.1175 60.8765C38.1175 61.2743 38.2003 61.4566 38.3661 61.4566C38.4986 61.4566 38.6147 61.556 38.6147 61.672C38.6147 61.788 38.7638 62.0035 38.9461 62.1692C39.1284 62.3183 39.2776 62.6001 39.2776 62.7824C39.2776 62.9647 39.3936 63.1138 39.5262 63.1138C39.6587 63.1138 39.7748 63.263 39.7748 63.4453C39.7748 63.6607 39.8908 63.7768 40.1062 63.7768C40.2885 63.7768 40.4377 63.8928 40.4377 64.0253C40.4377 64.1579 40.5537 64.2739 40.6863 64.2739C40.8188 64.2739 40.9349 64.4231 40.9349 64.6054C40.9349 64.7877 41.0509 64.9369 41.1834 64.9369C41.316 64.9369 41.432 65.0529 41.432 65.1854C41.432 65.318 41.316 65.434 41.1834 65.434C41.0509 65.434 40.9349 65.5335 40.9349 65.6661C40.9349 65.7986 40.7194 65.9478 40.4542 66.0141C40.1891 66.0638 39.9239 66.2295 39.8742 66.3621C39.8245 66.4947 39.5593 66.5941 39.1947 66.5941C38.8135 66.5941 38.6147 66.677 38.6147 66.8262C38.6147 67.0085 38.134 67.0913 36.3773 67.1742C33.5268 67.3233 30.6597 67.1576 30.6597 66.8262C30.6597 66.677 30.4608 66.5941 30.0797 66.5941C29.6819 66.5941 29.4996 66.5113 29.4996 66.3621C29.4996 66.2295 29.2842 66.0804 29.0024 66.0141C28.7373 65.9478 28.5052 65.7986 28.5052 65.6661C28.5052 65.5335 28.3561 65.434 28.1738 65.434C27.9915 65.434 27.8423 65.318 27.8423 65.1854C27.8423 65.0529 27.7263 64.9369 27.5937 64.9369C27.4612 64.9369 27.3451 64.7877 27.3451 64.6054C27.3451 64.3899 27.2291 64.2739 27.0137 64.2739C26.7485 64.2739 26.6822 64.1579 26.6822 63.7768C26.6822 63.4453 26.5994 63.2796 26.4336 63.2796C26.3011 63.2796 26.185 63.1304 26.185 62.9481C26.185 62.7658 26.0856 62.6167 25.953 62.6167C25.8204 62.6167 25.6713 62.3681 25.6216 62.0366C25.5553 61.6886 25.4061 61.4566 25.2735 61.4566C25.0912 61.4566 25.025 61.2411 25.025 60.6279C25.025 60.0313 24.9587 59.7993 24.7929 59.7993C24.5775 59.7993 24.362 59.1198 24.362 58.374C24.362 58.1254 24.2626 57.9763 24.1134 57.9763C23.9311 57.9763 23.8649 57.7774 23.8649 57.1476C23.8649 56.551 23.7986 56.319 23.6328 56.319C23.5003 56.319 23.3842 56.0372 23.3179 55.4903C23.2682 55.0263 23.1025 54.5457 22.9533 54.3965C22.8208 54.264 22.7048 53.8828 22.7048 53.5679C22.7048 53.1702 22.6219 53.0044 22.4562 53.0044C22.2904 53.0044 22.2076 52.8221 22.2076 52.4244C22.2076 52.0763 22.1081 51.8112 21.9424 51.7117C21.7767 51.6289 21.6441 51.2477 21.5944 50.8002C21.5447 50.3362 21.4121 50.0213 21.2961 50.0213C21.1801 50.0213 21.0475 49.7064 20.9978 49.2424C20.948 48.8115 20.832 48.4303 20.7326 48.3972C20.2686 48.248 20.3348 46.0438 20.7989 46.0438C20.9315 46.0438 21.0475 45.9278 21.0475 45.7952C21.0475 45.6627 21.1635 45.5467 21.2961 45.5467C21.4286 45.5467 21.5447 45.3975 21.5447 45.2152C21.5447 44.95 21.6607 44.8837 22.1247 44.8837C22.5225 44.8837 22.7048 44.8009 22.7048 44.6352C22.7048 44.4363 22.9368 44.3866 23.8649 44.3866C24.7764 44.3866 25.025 44.3368 25.025 44.138C25.025 43.9722 25.2901 43.8728 25.8536 43.7899C26.3839 43.7236 26.6822 43.6076 26.6822 43.4585C26.6822 43.3259 26.8314 43.2265 27.0137 43.2265C27.196 43.2265 27.3451 43.1105 27.3451 42.9779C27.3451 42.8453 27.4612 42.7293 27.5937 42.7293C27.7595 42.7293 27.8423 42.895 27.8423 43.2265ZM5.51875 47.8006C6.43025 47.8834 6.79485 47.9829 6.79485 48.132C6.79485 48.3143 7.22575 48.364 8.78359 48.364C10.4409 48.364 10.7723 48.3972 10.7723 48.6126C10.7723 48.8281 11.2198 48.8612 13.8383 48.8612C16.4568 48.8612 16.9043 48.8281 16.9043 48.6126C16.9043 48.48 17.0534 48.364 17.2357 48.364C17.418 48.364 17.5672 48.4635 17.5672 48.5961C17.5672 48.7121 17.7163 48.8612 17.8986 48.9109C18.1472 48.9772 18.2301 49.143 18.2301 49.5904C18.2301 50.0047 18.2964 50.187 18.4787 50.187C18.661 50.187 18.7273 50.3859 18.7273 51.0157C18.7273 51.6123 18.7936 51.8443 18.9593 51.8443C19.1913 51.8443 19.3902 52.3249 19.3902 52.9547C19.3902 53.1867 19.4896 53.3359 19.6388 53.3359C19.8211 53.3359 19.8874 53.5182 19.8874 53.9988C19.8874 54.4463 19.9537 54.6617 20.1194 54.6617C20.2686 54.6617 20.3846 54.96 20.4509 55.4903C20.5337 56.0538 20.6332 56.319 20.7989 56.319C20.9812 56.319 21.0475 56.5344 21.0475 57.2305C21.0475 57.9265 21.0972 58.142 21.2961 58.142C21.4784 58.142 21.5447 58.3409 21.5447 58.8878C21.5447 59.385 21.6275 59.6667 21.8098 59.7661C21.9756 59.849 22.1081 60.2302 22.1579 60.6776C22.2241 61.1914 22.3236 61.4566 22.4727 61.4566C22.6219 61.4566 22.7048 61.6554 22.7048 62.0366C22.7048 62.4344 22.7876 62.6167 22.9533 62.6167C23.0859 62.6167 23.2351 62.8487 23.3014 63.1967C23.3511 63.5282 23.5003 63.7768 23.6328 63.7768C23.782 63.7768 23.8649 63.9756 23.8649 64.3568C23.8649 64.7545 23.9477 64.9369 24.1134 64.9369C24.246 64.9369 24.362 65.0529 24.362 65.1854C24.362 65.3843 24.0306 65.434 22.3733 65.434C20.8155 65.434 20.3846 65.3843 20.3846 65.202C20.3846 65.0529 20.02 64.9534 19.1085 64.8706C18.2301 64.8043 17.7826 64.6883 17.6832 64.5225C17.6003 64.3568 17.2854 64.2739 16.7385 64.2739C16.1088 64.2739 15.9099 64.2076 15.9099 64.0253C15.9099 63.8596 15.7276 63.7768 15.3299 63.7768C14.9321 63.7768 14.7498 63.6939 14.7498 63.5282C14.7498 63.3956 14.5178 63.2464 14.1698 63.1801C13.8383 63.1304 13.5897 62.9813 13.5897 62.8487C13.5897 62.6995 13.3908 62.6167 13.0097 62.6167C12.6119 62.6167 12.4296 62.5338 12.4296 62.3846C12.4296 62.2521 12.2142 62.1029 11.9324 62.0366C11.6673 61.9703 11.4352 61.8212 11.4352 61.6886C11.4352 61.556 11.2861 61.4566 11.1038 61.4566C10.9215 61.4566 10.7723 61.3405 10.7723 61.208C10.7723 61.0754 10.5403 60.9262 10.1923 60.8599C9.86082 60.8102 9.61223 60.6611 9.61223 60.5285C9.61223 60.3959 9.49622 60.2965 9.36364 60.2965C9.23106 60.2965 9.11505 60.1805 9.11505 60.0479C9.11505 59.9153 8.99904 59.7993 8.84988 59.7993C8.70073 59.7993 8.55157 59.6501 8.50185 59.4678C8.45214 59.2855 8.30298 59.1364 8.18697 59.1364C8.05439 59.1364 7.95495 59.0204 7.95495 58.8878C7.95495 58.7552 7.8058 58.6392 7.62349 58.6392C7.44119 58.6392 7.29204 58.5232 7.29204 58.3906C7.29204 58.258 7.17603 58.142 7.04345 58.142C6.91086 58.142 6.79485 57.9928 6.79485 57.8105C6.79485 57.5951 6.67884 57.4791 6.4634 57.4791C6.2811 57.4791 6.13194 57.3631 6.13194 57.2305C6.13194 57.0979 6.01593 56.9819 5.88335 56.9819C5.75077 56.9819 5.63476 56.8327 5.63476 56.6504C5.63476 56.4681 5.51875 56.319 5.38616 56.319C5.25358 56.319 5.13757 56.203 5.13757 56.0538C5.13757 55.9047 4.98842 55.7555 4.80612 55.7058C4.5741 55.6395 4.47466 55.4738 4.47466 55.1423C4.47466 54.8274 4.3918 54.6617 4.22607 54.6617C4.09349 54.6617 3.97748 54.5125 3.97748 54.3302C3.97748 54.1479 3.86147 53.9988 3.72888 53.9988C3.5963 53.9988 3.44715 53.7668 3.38085 53.4187C3.33114 53.0873 3.18198 52.8387 3.0494 52.8387C2.8671 52.8387 2.81738 52.5238 2.81738 51.43C2.81738 50.2865 2.76766 50.0213 2.56879 50.0213C2.4362 50.0213 2.32019 49.8722 2.32019 49.6899C2.32019 49.5076 2.4362 49.3584 2.56879 49.3584C2.75109 49.3584 2.81738 49.1595 2.81738 48.6292C2.81738 47.9994 2.8671 47.8834 3.19855 47.8171C3.81175 47.7011 4.2095 47.7011 5.51875 47.8006Z" fill="#121110"/>
</svg>
