<svg width="86" height="44" viewBox="0 0 86 44" fill="none" xmlns="http://www.w3.org/2000/svg">
<path d="M56.9372 0.189075C56.5161 0.265633 54.8509 0.342194 53.2623 0.342194C51.4441 0.361332 50.334 0.437889 50.334 0.552731C50.334 0.667568 49.6641 0.744125 48.7071 0.744125C47.7501 0.744125 47.0802 0.820686 47.0802 0.935524C47.0802 1.03122 46.6208 1.12692 46.0467 1.12692C45.4725 1.12692 44.9366 1.20348 44.8791 1.31832C44.8217 1.41402 44.4198 1.50972 43.9987 1.50972C43.5968 1.50972 43.2523 1.58628 43.2523 1.70111C43.2523 1.79681 43.0417 1.89251 42.7929 1.89251C42.0656 1.89251 41.8168 2.35187 42.0847 3.2323C42.1996 3.63423 42.4292 4.11272 42.5824 4.26585C42.7355 4.41896 42.8695 4.68692 42.8695 4.84004C42.8695 5.01229 42.9652 5.14627 43.0609 5.14627C43.1757 5.14627 43.2523 5.39509 43.2523 5.72047C43.2523 6.0267 43.3479 6.29466 43.4436 6.29466C43.5585 6.29466 43.635 6.63918 43.635 7.06025C43.635 7.48132 43.7307 7.82584 43.8264 7.82584C43.9413 7.82584 44.0178 8.36176 44.0178 9.06993V10.314H43.2714C42.8503 10.314 42.4675 10.3906 42.4101 10.4863C42.3527 10.582 41.9699 10.6968 41.5871 10.7542C40.6875 10.8882 39.3477 11.1753 38.4673 11.4433C38.1037 11.539 37.0701 11.8069 36.1705 12.0366C33.6824 12.6491 33.0508 12.8213 32.5723 13.0127C32.3234 13.1084 31.8832 13.185 31.577 13.185C31.2708 13.185 30.9645 13.2615 30.9071 13.3764C30.8497 13.4721 30.5434 13.5678 30.2372 13.5678C29.931 13.5678 29.6247 13.6443 29.5673 13.7592C29.5099 13.8549 29.1462 13.9506 28.7826 13.9506C28.4189 13.9506 28.1318 14.0271 28.1318 14.142C28.1318 14.2377 27.8256 14.3334 27.4619 14.3334C27.0983 14.3334 26.7921 14.4099 26.7921 14.5248C26.7921 14.6205 26.4475 14.7162 26.0265 14.7162C25.6054 14.7162 25.2609 14.7927 25.2609 14.9076C25.2609 15.0033 24.9546 15.099 24.591 15.099C24.2273 15.099 23.9211 15.1755 23.9211 15.2903C23.9211 15.386 23.7297 15.4817 23.4809 15.4817C23.2512 15.4817 22.6004 15.654 22.0454 15.8454C21.0501 16.2091 20.4759 16.2091 20.4759 15.8454C20.4759 15.6157 19.2127 14.3334 19.0022 14.3334C18.9065 14.3334 18.7151 14.1611 18.562 13.9506C18.4088 13.74 18.1983 13.5678 18.0835 13.5678C17.9686 13.5678 17.7007 13.4147 17.4901 13.2233C17.0308 12.8213 14.7723 11.4624 14.5235 11.4624C14.4278 11.4624 14.3512 11.3667 14.3512 11.271C14.3512 11.1562 14.1789 11.0796 13.9684 11.0796C13.7579 11.0796 13.5856 10.9839 13.5856 10.8882C13.5856 10.7734 13.4134 10.6968 13.2028 10.6968C12.9923 10.6968 12.82 10.6011 12.82 10.5054C12.82 10.3906 12.6478 10.314 12.4372 10.314C12.2267 10.314 12.0544 10.2183 12.0544 10.1226C12.0544 10.0078 11.8822 9.93121 11.6716 9.93121C11.4611 9.93121 11.2888 9.83552 11.2888 9.73982C11.2888 9.62498 11.0783 9.54842 10.8295 9.54842C10.5615 9.54842 10.2936 9.45272 10.2362 9.35702C10.1787 9.24218 9.91078 9.16563 9.64282 9.16563C9.39401 9.16563 9.18347 9.08907 9.18347 9.0125C9.18347 8.93595 8.78153 8.74455 8.26476 8.61057C7.76713 8.45745 7.23121 8.26606 7.07809 8.1895C6.82928 8.07466 4.22627 7.25165 1.50842 6.44778C0.91509 6.27552 0.761972 6.3138 0.398316 6.60089C-0.0227589 6.96455 -0.137598 7.44305 0.187779 7.44305C0.302617 7.44305 0.379176 7.59616 0.379176 7.78756C0.379176 7.97896 0.455735 8.20864 0.551434 8.30434C0.761972 8.53401 1.50842 10.6968 1.75724 11.7495C1.85294 12.1706 2.0252 12.8979 2.12089 13.3764C2.23573 13.8549 2.36971 14.7544 2.42713 15.386C2.46541 16.0177 2.59939 16.611 2.69509 16.7258C2.9439 16.9746 2.92477 24.8028 2.67595 24.9559C2.58025 25.0134 2.48455 25.6258 2.48455 26.3149C2.48455 27.0039 2.40799 27.5398 2.29315 27.5398C2.19745 27.5398 2.10176 27.8078 2.10176 28.1523C2.10176 28.803 2.06348 28.9561 1.14477 31.6549C0.264338 34.2196 0.149499 34.6215 0.264338 34.9278C0.455735 35.4254 2.19745 35.2148 4.58992 34.4301C4.85788 34.3536 5.45121 34.1813 5.92971 34.0473C6.81014 33.7985 7.49917 33.5497 8.07336 33.2626C8.26476 33.1669 8.59014 33.0903 8.80067 33.0903C9.01121 33.0903 9.18347 32.9946 9.18347 32.8989C9.18347 32.7841 9.45143 32.7075 9.75766 32.7075C10.083 32.7075 10.3319 32.6118 10.3319 32.5161C10.3319 32.4013 10.5424 32.3247 10.8103 32.3247C11.0783 32.3247 11.2888 32.229 11.2888 32.1333C11.2888 32.0185 11.4611 31.9419 11.6716 31.9419C11.8822 31.9419 12.0544 31.8462 12.0544 31.7505C12.0544 31.6357 12.2267 31.5592 12.4372 31.5592C12.6478 31.5592 12.82 31.4635 12.82 31.3678C12.82 31.2529 12.954 31.1764 13.1071 31.1764C13.5665 31.1764 16.0929 29.6643 16.6671 29.0327C16.8394 28.8413 17.0882 28.6882 17.2222 28.6882C17.4901 28.6882 20.0931 26.066 20.0931 25.7981C20.0931 25.7024 20.2463 25.6258 20.4377 25.6258C20.763 25.6258 21.0118 25.7789 21.9497 26.5828C22.0837 26.6785 22.3133 26.7742 22.4856 26.7742C22.6387 26.7742 22.7727 26.8508 22.7727 26.9656C22.7727 27.0613 22.9067 27.157 23.0598 27.157C23.2129 27.157 23.3469 27.2336 23.3469 27.3484C23.3469 27.4441 23.4809 27.5398 23.634 27.5398C23.7871 27.5398 23.9211 27.6164 23.9211 27.7312C23.9211 27.8269 24.0551 27.9226 24.2082 27.9226C24.3613 27.9226 24.4953 27.9992 24.4953 28.114C24.4953 28.2097 24.6675 28.3054 24.8781 28.3054C25.0886 28.3054 25.2609 28.382 25.2609 28.4968C25.2609 28.5925 25.4331 28.6882 25.6437 28.6882C25.8542 28.6882 26.0265 28.7647 26.0265 28.8413C26.0265 28.937 26.2561 29.1284 26.5432 29.2815C26.8495 29.4346 27.1174 29.5878 27.1749 29.6643C27.2323 29.7217 27.883 30.1045 28.6103 30.5065C29.3568 30.9084 29.9693 31.3103 30.0075 31.406C30.0458 31.4826 30.2372 31.5592 30.4478 31.5592C30.6391 31.5592 30.8114 31.6357 30.8114 31.7505C30.8114 31.8462 30.9837 31.9419 31.1942 31.9419C31.4047 31.9419 31.577 32.0185 31.577 32.1333C31.577 32.229 31.7493 32.3247 31.9598 32.3247C32.1703 32.3247 32.3426 32.4013 32.3426 32.5161C32.3426 32.6118 32.5148 32.7075 32.7254 32.7075C32.9359 32.7075 33.1082 32.7841 33.1082 32.8989C33.1082 32.9946 33.2804 33.0903 33.4718 33.0903C33.6824 33.0903 33.8738 33.1478 33.912 33.2243C34.0077 33.454 38.5439 35.5785 38.9075 35.5785C39.0989 35.5785 39.2329 35.6551 39.2329 35.7699C39.2329 35.8656 39.4052 35.9613 39.5966 35.9613C39.8071 35.9613 40.0368 36.057 40.0942 36.1527C40.1516 36.2675 40.4196 36.3441 40.6875 36.3441C40.9363 36.3441 41.1469 36.4207 41.1469 36.5355C41.1469 36.6312 41.4148 36.7269 41.7211 36.7269C42.0464 36.7269 42.2953 36.8034 42.2953 36.9183C42.2953 37.014 42.5632 37.1097 42.8695 37.1097C43.1948 37.1097 43.4436 37.1862 43.4436 37.3011C43.4436 37.3968 43.7499 37.4925 44.1135 37.4925C44.4772 37.4925 44.7834 37.569 44.7834 37.6839C44.7834 37.7796 45.0322 37.8753 45.3385 37.8753C45.6639 37.8753 45.951 37.9518 46.0084 38.0475C46.0658 38.1432 46.3912 38.2581 46.7357 38.3155C48.0372 38.526 49.1856 38.9088 49.1856 39.1194C49.1856 39.4256 48.4965 40.1146 48.0372 40.2677C47.8267 40.3252 47.6544 40.4591 47.6544 40.5357C47.6544 40.6123 47.3482 40.8037 46.9845 40.9376C46.2189 41.2439 45.8935 41.952 46.3338 42.354C46.9462 42.909 52.0948 44 54.1428 44C55.0232 44 57.4348 43.4832 57.6071 43.2535C57.6645 43.177 58.0664 43.0047 58.5258 42.8516C58.966 42.7176 59.3297 42.5262 59.3297 42.4305C59.3297 42.354 59.5019 42.2774 59.7125 42.2774C59.923 42.2774 60.0952 42.1817 60.0952 42.086C60.0952 41.9712 60.2292 41.8946 60.3823 41.8946C60.5355 41.8946 60.6694 41.7989 60.6694 41.7032C60.6694 41.5884 60.7651 41.5118 60.88 41.5118C61.014 41.5118 61.2436 41.3396 61.435 41.129C62.0092 40.4591 63.349 39.9806 64.6696 39.9806C65.952 39.9806 67.0238 39.8084 69.8565 39.1768C70.7561 38.9662 71.7705 38.7557 72.115 38.6983C72.4595 38.6409 72.7849 38.526 72.8423 38.4303C72.8997 38.3346 73.1103 38.2581 73.3208 38.2581C73.5122 38.2581 73.8567 38.1624 74.0673 38.0667C74.2778 37.9518 74.6223 37.7796 74.8329 37.6839C75.0434 37.569 75.3879 37.4925 75.5985 37.4925C75.809 37.4925 75.9813 37.3968 75.9813 37.3011C75.9813 37.1862 76.1535 37.1097 76.364 37.1097C76.5746 37.1097 76.7468 37.014 76.7468 36.9183C76.7468 36.8034 76.9574 36.7269 77.2253 36.7269C77.4933 36.7269 77.7038 36.6312 77.7038 36.5355C77.7038 36.4207 77.8761 36.3441 78.0866 36.3441C78.2972 36.3441 78.4694 36.2675 78.4694 36.1718C78.4694 36.0761 78.7182 35.9039 79.0436 35.7699C79.3499 35.6359 79.7709 35.3871 79.9815 35.2148C80.1729 35.0426 80.5365 34.7746 80.7662 34.6215C81.4361 34.1813 82.3931 33.3966 82.4505 33.2243C82.4888 33.1478 82.6228 33.0903 82.7567 33.0903C82.8716 33.0903 83.1012 32.9181 83.2544 32.7075C83.4075 32.497 83.5989 32.3247 83.6946 32.3247C83.9625 32.3247 85.1683 31.0041 85.1683 30.6979C85.1683 30.5447 85.264 30.4108 85.3597 30.4108C85.4746 30.4108 85.5511 30.1811 85.5511 29.9131C85.5511 29.3772 84.9195 28.6882 84.4602 28.6882C84.1922 28.6882 83.6372 28.248 83.6372 28.0374C83.6372 27.98 83.9051 27.9226 84.2114 27.9226C84.5367 27.9226 84.7856 27.8269 84.7856 27.7312C84.7856 27.6164 84.9387 27.5398 85.1301 27.5398C85.6468 27.5398 86.0679 25.9703 85.7808 25.1473C85.6468 24.822 85.5511 24.2286 85.5511 23.8458C85.5511 23.463 85.4746 23.1377 85.3597 23.1377C85.264 23.1377 85.1683 22.7931 85.1683 22.3721C85.1683 21.951 85.0918 21.6065 84.9769 21.6065C84.8812 21.6065 84.7856 21.3959 84.7856 21.128C84.7856 20.86 84.709 20.6495 84.5942 20.6495C84.4985 20.6495 84.4028 20.3815 84.4028 20.0753C84.4028 19.7499 84.3262 19.5011 84.2114 19.5011C84.1157 19.5011 84.02 19.3288 84.02 19.1183C84.02 18.9078 83.9434 18.7355 83.8286 18.7355C83.7329 18.7355 83.6372 18.6398 83.6372 18.525C83.6372 17.8742 79.7518 13.5678 79.1585 13.5678C79.0053 13.5678 78.8522 13.4912 78.8139 13.4147C78.7948 13.319 78.278 12.9362 77.7038 12.5534C77.1296 12.1706 76.5554 11.7686 76.4215 11.6538C76.2875 11.5581 76.0578 11.4624 75.8856 11.4624C75.7324 11.4624 75.5985 11.3667 75.5985 11.271C75.5985 11.1562 75.4262 11.0796 75.2157 11.0796C75.0051 11.0796 74.8329 11.0222 74.8329 10.9265C74.8329 10.7734 73.895 10.314 73.5505 10.314C73.4165 10.314 73.3017 10.2183 73.3017 10.1226C73.3017 10.0078 73.0911 9.93121 72.8232 9.93121C72.5552 9.93121 72.3447 9.83552 72.3447 9.73982C72.3447 9.62498 72.0959 9.54842 71.7705 9.54842C71.4643 9.54842 71.1963 9.45272 71.1963 9.35702C71.1963 9.24218 70.9475 9.16563 70.6604 9.16563C70.3733 9.16563 70.0479 9.08907 69.9522 8.99337C69.8374 8.89767 69.4546 8.78283 69.0909 8.74455C68.3828 8.68713 68.3636 8.64885 68 6.52434C67.9426 6.19896 67.8277 5.91187 67.732 5.91187C67.6363 5.91187 67.5598 5.7396 67.5598 5.52907C67.5598 5.31853 67.4832 5.14627 67.3684 5.14627C67.2727 5.14627 67.177 4.97401 67.177 4.76348C67.177 4.55294 67.1004 4.38068 66.9856 4.38068C66.8899 4.38068 66.7942 4.22757 66.7942 4.03617C66.7942 3.84477 66.6219 3.57681 66.4114 3.42369C66.2008 3.27058 66.0286 3.07918 66.0286 2.98348C66.0286 2.77294 64.7462 1.50972 64.4974 1.50972C64.4017 1.50972 64.306 1.41402 64.306 1.31832C64.306 1.20348 64.172 1.12692 64.0189 1.12692C63.8658 1.12692 63.7318 1.03122 63.7318 0.935524C63.7318 0.820686 63.5595 0.744125 63.349 0.744125C63.1385 0.744125 62.9662 0.64843 62.9662 0.552731C62.9662 0.437889 62.7557 0.361332 62.4877 0.361332C62.2198 0.361332 62.0092 0.265633 62.0092 0.169933C62.0092 -0.059742 58.0664 -0.059742 56.9372 0.189075ZM62.0092 1.70111C62.0092 1.79681 62.1432 1.89251 62.3155 1.89251C62.4686 1.89251 62.7174 2.00735 62.8705 2.12219C63.0045 2.25617 63.5021 2.67724 63.9806 3.0409C64.4591 3.40456 64.9759 3.92133 65.1099 4.18929C65.2438 4.45724 65.4735 4.78262 65.5884 4.9166C65.7223 5.05058 65.8946 5.37595 65.952 5.64391C66.0094 5.89272 66.1434 6.10326 66.2391 6.10326C66.3348 6.10326 66.4114 6.35208 66.4114 6.67746C66.4114 6.98369 66.5071 7.25165 66.6028 7.25165C66.7176 7.25165 66.7942 7.46218 66.7942 7.711C66.7942 8.13208 66.7176 8.17036 66.1817 8.11294C65.8372 8.05552 65.129 7.97896 64.6122 7.92154C63.9232 7.82584 63.6552 7.711 63.5978 7.4239C63.5404 7.23251 63.4256 7.06025 63.3299 7.06025C63.2342 7.06025 63.1576 6.94541 63.1576 6.81143C63.1576 6.67746 62.9854 6.19896 62.7748 5.75875C62.5643 5.33767 62.392 4.84004 62.392 4.66778C62.392 4.51466 62.3155 4.38068 62.2006 4.38068C62.1049 4.38068 62.0092 4.20842 62.0092 3.99789C62.0092 3.78735 61.9327 3.61509 61.8178 3.61509C61.7221 3.61509 61.6264 3.40456 61.6264 3.15574C61.6264 2.67724 61.0714 2.31359 60.8608 2.6581C60.6886 2.92606 60.8608 3.99789 61.0714 3.99789C61.1671 3.99789 61.2436 4.17015 61.2436 4.38068C61.2436 4.59122 61.3393 4.76348 61.435 4.76348C61.5499 4.76348 61.6264 4.93574 61.6264 5.14627C61.6264 5.35681 61.7221 5.52907 61.8178 5.52907C61.9327 5.52907 62.0092 5.7396 62.0092 6.00756C62.0092 6.27552 62.1049 6.48606 62.2006 6.48606C62.3155 6.48606 62.392 6.65831 62.392 6.86885C62.392 7.07939 62.5069 7.25165 62.6408 7.25165C62.7557 7.25165 62.7174 7.34735 62.526 7.46218C62.3537 7.55788 61.703 7.63445 61.1097 7.59616L60.0378 7.53875L59.7507 6.71574C59.6168 6.27552 59.4062 5.91187 59.3105 5.91187C59.2148 5.91187 59.1383 5.77789 59.1383 5.62477C59.1383 5.47165 58.8894 4.80176 58.5641 4.151C58.2578 3.50025 57.9899 2.86864 57.9899 2.71552C57.9899 2.58154 57.9516 2.46671 57.9133 2.46671C57.875 2.46671 57.7028 2.40929 57.5305 2.35187C57.2817 2.25617 57.2243 2.37101 57.2243 2.92606C57.2243 3.30886 57.32 3.61509 57.4157 3.61509C57.5305 3.61509 57.6071 3.78735 57.6071 3.99789C57.6071 4.20842 57.7028 4.38068 57.7985 4.38068C57.9133 4.38068 57.9899 4.51466 57.9899 4.66778C57.9899 4.8209 58.2578 5.49079 58.5641 6.14154C59.0043 7.04111 59.0808 7.36649 58.9086 7.48132C58.6023 7.67272 56.9946 7.67272 56.7458 7.48132C56.4587 7.28993 56.0759 6.54348 56.0759 6.19896C56.0759 6.04584 55.9993 5.91187 55.8845 5.91187C55.7888 5.91187 55.6931 5.77789 55.6931 5.60563C55.6931 5.33767 55.3294 4.55294 54.449 2.8495C54.0662 2.12219 53.5877 2.12219 53.5877 2.83036C53.5877 3.15574 53.6834 3.42369 53.7791 3.42369C53.894 3.42369 53.9705 3.50025 53.9705 3.59595C53.9705 3.69165 54.3725 4.61036 54.8509 5.60563C55.3294 6.60089 55.674 7.50047 55.6165 7.6153C55.5591 7.711 55.0232 7.84498 54.449 7.92154C53.3006 8.05552 52.8221 7.8067 52.8221 7.07939C52.8221 6.84971 52.7456 6.67746 52.6307 6.67746C52.535 6.67746 52.4393 6.5052 52.4393 6.29466C52.4393 6.08412 52.3628 5.91187 52.2479 5.91187C52.1522 5.91187 52.0565 5.77789 52.0565 5.62477C52.0565 5.20369 50.755 2.46671 50.5636 2.46671C50.4679 2.46671 50.2957 2.58154 50.1808 2.71552C50.0086 2.90692 50.1808 3.40456 50.7933 4.68692C51.2527 5.62477 51.7312 6.67746 51.8843 7.00283C52.0374 7.34735 52.2288 7.63445 52.3436 7.63445C52.7073 7.63445 51.7503 8.15122 51.1953 8.26606C50.5445 8.38089 49.9512 8.13208 49.9512 7.73014C49.9512 7.57702 49.8746 7.44305 49.7598 7.44305C49.6641 7.44305 49.5684 7.27079 49.5684 7.06025C49.5684 6.84971 49.4918 6.67746 49.4153 6.67746C49.3196 6.67746 49.1282 6.23724 48.9942 5.72047C48.8602 5.18456 48.6688 4.76348 48.5731 4.76348C48.4965 4.76348 48.42 4.59122 48.42 4.38068C48.42 4.17015 48.3434 3.99789 48.2286 3.99789C48.1329 3.99789 48.0372 3.82563 48.0372 3.63423C48.0372 3.42369 47.9606 3.19402 47.8458 3.1366C47.7501 3.07918 47.6544 2.86864 47.6544 2.6581C47.6544 2.25617 48.2477 2.16047 52.2862 1.93079C53.6069 1.85423 54.7744 1.7394 54.8509 1.6437C55.0615 1.43316 62.0092 1.47144 62.0092 1.70111ZM46.8888 2.9452C46.8888 3.09832 47.0611 3.51939 47.2716 3.90219C47.4821 4.28498 47.6544 4.70606 47.6544 4.85918C47.6544 5.01229 47.7501 5.14627 47.8458 5.14627C47.9606 5.14627 48.0372 5.31853 48.0372 5.52907C48.0372 5.7396 48.1329 5.91187 48.2286 5.91187C48.3434 5.91187 48.42 6.1224 48.42 6.39036C48.42 6.65831 48.5157 6.86885 48.6114 6.86885C48.7262 6.86885 48.8028 7.04111 48.8028 7.25165C48.8028 7.46218 48.8985 7.63445 48.9942 7.63445C49.3004 7.63445 49.2047 8.53401 48.8793 8.66799C48.7071 8.72541 48.1903 8.78283 47.731 8.78283C47.2716 8.78283 46.8888 8.85939 46.8888 8.97423C46.8888 9.06993 46.6017 9.16563 46.2572 9.16563C45.7021 9.16563 45.6256 9.08907 45.3959 8.40003C45.2811 7.97896 45.1662 7.38563 45.1662 7.07939C45.1662 6.75401 45.0897 6.44778 44.9748 6.39036C44.8791 6.33294 44.7834 6.0267 44.7834 5.70133C44.7834 5.39509 44.7069 5.14627 44.592 5.14627C44.4963 5.14627 44.4006 4.97401 44.4006 4.76348C44.4006 4.55294 44.3241 4.38068 44.2092 4.38068C44.1135 4.38068 44.0178 4.07445 44.0178 3.71079C44.0178 3.11746 44.0753 3.0409 44.7452 2.86864C45.6064 2.63897 46.5443 2.52412 46.7548 2.61982C46.8314 2.6581 46.8888 2.81122 46.8888 2.9452ZM3.6138 8.61057C3.99659 8.72541 4.45595 8.89767 4.6282 8.99337C4.8196 9.08907 5.18326 9.16563 5.45121 9.16563C5.71917 9.16563 5.92971 9.24218 5.92971 9.35702C5.92971 9.45272 6.19767 9.54842 6.5039 9.54842C6.82928 9.54842 7.07809 9.62498 7.07809 9.73982C7.07809 9.83552 7.28863 9.93121 7.55659 9.93121C7.82455 9.93121 8.03508 10.0078 8.03508 10.1226C8.03508 10.2183 8.30304 10.314 8.60928 10.314C8.93465 10.314 9.18347 10.3906 9.18347 10.5054C9.18347 10.6011 9.31745 10.6968 9.47057 10.6968C9.62368 10.6968 9.91078 10.7734 10.1022 10.8691C10.2744 10.9648 11.2888 11.4433 12.3415 11.9409C13.3942 12.4577 14.2938 12.9362 14.3129 13.0319C14.3512 13.1084 14.5043 13.185 14.6574 13.185C14.8106 13.185 14.9254 13.2615 14.9254 13.3764C14.9254 13.4721 15.0977 13.5678 15.3082 13.5678C15.5187 13.5678 15.691 13.6443 15.691 13.7592C15.691 13.8549 15.825 13.9506 15.9781 13.9506C16.1312 13.9506 16.2652 14.0271 16.2652 14.142C16.2652 14.2377 16.3992 14.3334 16.5523 14.3334C16.7054 14.3334 16.8394 14.4099 16.8394 14.4865C16.8394 14.5822 17.0691 14.7736 17.3753 14.9267C17.9112 15.1947 19.2127 16.4196 19.0979 16.5344C18.9447 16.6876 16.0546 17.5871 15.7101 17.5871C15.4996 17.5871 15.2699 17.6637 15.2125 17.7785C15.1551 17.8742 14.8488 17.9699 14.5426 17.9699C14.2364 17.9699 13.9301 18.0465 13.8727 18.1613C13.8153 18.257 13.4516 18.3527 13.088 18.3527C12.7243 18.3527 12.4372 18.4293 12.4372 18.5441C12.4372 18.6398 12.3033 18.7355 12.131 18.7355C11.7673 18.7355 11.2888 19.1949 11.2888 19.5394C11.2888 19.8073 11.4994 19.9987 12.6286 20.6878C14.7149 21.9893 15.3656 22.3721 15.5187 22.3721C15.6144 22.3721 15.691 22.4486 15.691 22.5635C15.691 22.6592 15.8441 22.7549 16.0355 22.7549C16.2269 22.7549 16.4949 22.9271 16.648 23.1377C16.8011 23.3482 17.0308 23.5205 17.1839 23.5205C17.3179 23.5205 17.605 23.6927 17.8346 23.9032C18.0643 24.1138 18.3514 24.286 18.4854 24.286C18.6002 24.286 18.7725 24.42 18.8299 24.6114C18.9639 24.9177 18.5237 25.511 17.3179 26.6402C16.1886 27.6738 15.9015 27.9226 15.691 27.9226C15.5953 27.9226 15.4996 27.9992 15.4996 28.114C15.4996 28.2097 15.3656 28.3054 15.2125 28.3054C15.0594 28.3054 14.9254 28.382 14.9254 28.4968C14.9254 28.5925 14.7531 28.6882 14.5426 28.6882C14.3321 28.6882 14.1598 28.7647 14.1598 28.8796C14.1598 28.9753 14.045 29.071 13.8919 29.071C13.7387 29.071 13.5856 29.1475 13.5473 29.2432C13.4708 29.4921 9.9682 31.1764 9.54712 31.1764C9.33659 31.1764 9.18347 31.2529 9.18347 31.3295C9.18347 31.4252 8.76239 31.6166 8.22648 31.7505C7.70971 31.8845 7.26949 32.0759 7.26949 32.1716C7.26949 32.2482 6.92498 32.3247 6.5039 32.3247C6.08283 32.3247 5.73831 32.4013 5.73831 32.5161C5.73831 32.6118 5.43207 32.7075 5.06842 32.7075C4.70476 32.7075 4.39853 32.7841 4.39853 32.8989C4.39853 32.9946 4.20713 33.0903 3.97745 33.0903C3.74778 33.0903 3.28842 33.186 2.92477 33.32C2.58025 33.4348 2.23573 33.4731 2.15917 33.3966C2.06348 33.3009 2.12089 33.186 2.25487 33.1478C2.36971 33.0903 2.48455 32.8032 2.48455 32.5161C2.48455 32.2099 2.56111 31.9037 2.67595 31.8462C2.77165 31.7888 2.86735 31.4826 2.86735 31.1572C2.86735 30.851 2.96304 30.6022 3.05874 30.6022C3.17358 30.6022 3.25014 30.2576 3.25014 29.8366C3.25014 29.4155 3.34584 29.071 3.44154 29.071C3.55638 29.071 3.63294 28.6308 3.63294 28.114C3.63294 27.5781 3.72864 27.157 3.82433 27.157C3.93917 27.157 4.01573 26.602 4.01573 25.8555C4.01573 25.1473 4.11143 24.4583 4.20713 24.3626C4.57079 23.9989 4.16885 14.3334 3.80519 14.3334C3.7095 14.3334 3.63294 13.9506 3.63294 13.4721C3.63294 12.9936 3.55638 12.6108 3.44154 12.6108C3.34584 12.6108 3.25014 12.228 3.25014 11.7495C3.25014 11.271 3.17358 10.8882 3.05874 10.8882C2.96304 10.8882 2.86735 10.582 2.86735 10.2183C2.86735 9.85466 2.79079 9.54842 2.67595 9.54842C2.58025 9.54842 2.48455 9.33788 2.48455 9.08907C2.48455 8.84025 2.36971 8.57229 2.25487 8.53401C1.75724 8.32347 2.96304 8.40003 3.6138 8.61057ZM61.2436 9.33788C61.2436 9.3953 61.5499 9.47186 61.9327 9.491C62.66 9.52928 63.0428 9.73982 62.6408 9.87379C62.258 10.0078 62.3537 10.314 62.7748 10.314C63.0236 10.314 63.1576 10.18 63.1576 9.93121C63.1576 9.5867 63.2916 9.54842 64.3251 9.54842C65.3013 9.54842 65.5692 9.62498 65.8946 9.96949C66.1434 10.2757 66.2965 10.3331 66.354 10.1609C66.4879 9.79724 68.0765 9.87379 68.4976 10.2566C68.689 10.448 68.8804 10.7159 68.9187 10.8499C68.9761 11.0222 69.1101 11.003 69.3972 10.7159C69.6268 10.5054 69.8757 10.4097 69.9714 10.4863C70.0671 10.5628 70.5264 10.7351 71.0049 10.8882C72.5361 11.3284 74.029 12.0749 74.1247 12.4385C74.2013 12.7065 74.3927 12.8022 74.9094 12.8022C75.2922 12.8022 75.5985 12.8787 75.5985 12.9936C75.5985 13.0893 75.7516 13.185 75.943 13.185C76.1344 13.185 76.4023 13.3572 76.5554 13.5678C76.7086 13.7783 76.9765 13.9506 77.1679 13.9506C77.3593 13.9506 77.5124 14.0271 77.5124 14.142C77.5124 14.2377 77.3402 14.3334 77.1105 14.3334C76.8808 14.3334 76.7468 14.4291 76.8043 14.563C76.9 14.8501 77.5507 14.7736 77.7421 14.4673C77.8378 14.3142 77.9909 14.3908 78.2397 14.6779C78.4503 14.9076 78.68 15.099 78.7374 15.099C78.8139 15.099 78.9862 15.2138 79.1202 15.3286C79.2542 15.4626 79.5987 15.7497 79.8666 15.9602C80.1537 16.1708 80.3834 16.4005 80.3834 16.4962C80.3834 16.5727 80.6705 16.9364 81.0342 17.3C81.3978 17.6637 81.7423 18.123 81.8189 18.3527C81.8763 18.5632 82.0103 18.7355 82.106 18.7355C82.24 18.7355 82.661 19.6734 83.4649 21.7596C83.7329 22.4486 83.6754 22.7549 83.2544 22.7549C83.0438 22.7549 82.8716 22.8314 82.8716 22.9463C82.8716 23.042 83.1395 23.1377 83.4458 23.1377C83.9817 23.1377 84.02 23.1759 84.02 23.9032C84.02 24.3243 84.1157 24.6688 84.2114 24.6688C84.3262 24.6688 84.4028 25.0325 84.4028 25.4918C84.4028 26.2957 84.4028 26.3149 83.5032 26.5445C82.9864 26.6977 82.4314 26.889 82.2591 26.9847C82.0677 27.0804 81.6658 27.157 81.3404 27.157C81.0342 27.157 80.7662 27.2336 80.7662 27.3484C80.7662 27.4441 80.5939 27.5398 80.3834 27.5398C80.0772 27.5398 80.0006 27.6738 80.0006 28.114C80.0006 28.5542 80.0772 28.6882 80.3834 28.6882C80.5939 28.6882 80.7662 28.7647 80.7662 28.8796C80.7662 28.9753 80.9193 29.071 81.1107 29.071C81.3213 29.071 81.7232 29.1858 82.0294 29.3389C82.3357 29.4921 82.8142 29.7026 83.1204 29.8174C83.4075 29.9323 83.6372 30.0854 83.6372 30.1811C83.6372 30.3725 82.0103 31.9419 81.8189 31.9419C81.7423 31.9419 81.4361 32.1908 81.149 32.5161C80.8619 32.8224 80.4982 33.0903 80.3834 33.0903C80.2494 33.0903 80.0006 33.2435 79.8284 33.4157C79.4838 33.7985 79.2733 33.9325 77.0339 35.1383C76.1918 35.5785 75.3496 35.9613 75.1774 35.9613C74.986 35.9613 74.8329 36.0379 74.8329 36.1527C74.8329 36.2484 74.6223 36.3441 74.3544 36.3441C74.0864 36.3441 73.8759 36.4207 73.8759 36.5355C73.8759 36.6312 73.6271 36.7269 73.3017 36.7269C72.9954 36.7269 72.7275 36.8034 72.7275 36.9183C72.7275 37.014 72.4787 37.1097 72.1533 37.1097C71.8471 37.1097 71.5791 37.1862 71.5791 37.3011C71.5791 37.3968 71.2346 37.4925 70.8327 37.4925C70.4116 37.4925 70.0096 37.569 69.9522 37.6839C69.8948 37.7796 69.4546 37.8753 68.9952 37.8753C68.5359 37.8753 68.1148 37.9518 68.0574 38.0475C67.7512 38.526 58.3344 38.6791 55.0232 38.2772C54.0854 38.1624 52.7839 38.0093 52.1522 37.9518C51.5206 37.8944 50.9273 37.7604 50.8316 37.6647C50.7168 37.569 50.2191 37.4925 49.7215 37.4925C49.2239 37.4925 48.8028 37.3968 48.8028 37.3011C48.8028 37.1862 48.4583 37.1097 48.0372 37.1097C47.6161 37.1097 47.2716 37.014 47.2716 36.9183C47.2716 36.8034 46.9654 36.7269 46.6017 36.7269C46.2381 36.7269 45.9318 36.6312 45.9318 36.5355C45.9318 36.4207 45.683 36.3441 45.3576 36.3441C45.0514 36.3441 44.7834 36.2484 44.7834 36.1527C44.7834 36.0379 44.5346 35.9613 44.2284 35.9613C43.903 35.9613 43.5968 35.8656 43.5393 35.7699C43.4819 35.6551 43.2523 35.5785 43.0417 35.5785C42.8503 35.5785 42.5249 35.5019 42.3335 35.4062C41.5297 35.0043 40.5344 34.6215 40.2856 34.6215C40.1325 34.6215 39.9985 34.5258 39.9985 34.4301C39.9985 34.3153 39.8645 34.2387 39.7114 34.2387C39.5391 34.2387 39.0415 34.0665 38.6204 33.8559C38.1802 33.6454 37.7017 33.4731 37.5677 33.4731C37.4338 33.4731 37.3189 33.3774 37.3189 33.2817C37.3189 33.1669 37.1467 33.0903 36.9361 33.0903C36.7256 33.0903 36.5533 32.9946 36.5533 32.8989C36.5533 32.7841 36.3428 32.7075 36.0748 32.7075C35.8069 32.7075 35.5963 32.6118 35.5963 32.5161C35.5963 32.4013 35.4241 32.3247 35.2136 32.3247C35.003 32.3247 34.8308 32.229 34.8308 32.1333C34.8308 32.0185 34.6585 31.9419 34.448 31.9419C34.2374 31.9419 34.0652 31.8462 34.0652 31.7505C34.0652 31.6357 33.8929 31.5592 33.6824 31.5592C33.4718 31.5592 33.2996 31.4635 33.2996 31.3678C33.2996 31.2529 33.1273 31.1764 32.9168 31.1764C32.7062 31.1764 32.534 31.1189 32.534 31.0232C32.534 30.9467 32.1512 30.7361 31.6727 30.5447C31.1942 30.3342 30.8114 30.1045 30.8114 30.0088C30.8114 29.9131 30.6391 29.8366 30.4286 29.8366C30.2181 29.8366 30.0458 29.76 30.0458 29.6643C30.0458 29.5686 29.797 29.3964 29.4716 29.2624C29.1462 29.1284 28.8974 28.9561 28.8974 28.8604C28.8974 28.7647 28.7252 28.6882 28.5146 28.6882C28.3041 28.6882 28.1318 28.5925 28.1318 28.4968C28.1318 28.382 27.9979 28.3054 27.8447 28.3054C27.6916 28.3054 27.5576 28.2097 27.5576 28.114C27.5576 27.9992 27.3854 27.9226 27.1749 27.9226C26.9643 27.9226 26.7921 27.8269 26.7921 27.7312C26.7921 27.6164 26.6389 27.5398 26.4475 27.5398C26.2561 27.5398 25.9882 27.3675 25.8351 27.157C25.6819 26.9465 25.4523 26.7742 25.2992 26.7742C25.1652 26.7742 24.8781 26.6211 24.6675 26.4297C24.4761 26.2192 24.0551 25.9512 23.768 25.7981C23.4809 25.6641 22.9832 25.3387 22.6579 25.1091C22.3325 24.8602 21.9688 24.6688 21.854 24.6688C21.72 24.6688 21.6243 24.5731 21.6243 24.4774C21.6243 24.3626 21.4712 24.286 21.2798 24.286C21.0884 24.286 20.8204 24.1138 20.6673 23.9032C20.5142 23.6927 20.2463 23.5205 20.0549 23.5205C19.8635 23.5205 19.7103 23.4248 19.7103 23.3291C19.7103 23.2142 19.5764 23.1377 19.4232 23.1377C19.2701 23.1377 19.1361 23.042 19.1361 22.9463C19.1361 22.8314 18.983 22.7549 18.7916 22.7549C18.6002 22.7549 18.3323 22.5826 18.1792 22.3721C18.026 22.1615 17.7581 21.9893 17.5667 21.9893C17.3753 21.9893 17.2222 21.9127 17.2222 21.8362C17.2222 21.7405 16.8777 21.5108 16.4566 21.3194C16.0355 21.128 15.691 20.8983 15.691 20.8217C15.691 20.7452 15.5379 20.6303 15.3273 20.5538C14.9445 20.4389 14.1598 19.8073 14.1598 19.6159C14.1598 19.5585 14.3703 19.5011 14.6383 19.5011C14.9063 19.5011 15.1168 19.4054 15.1168 19.3097C15.1168 19.1949 15.423 19.1183 15.7867 19.1183C16.1503 19.1183 16.4566 19.0226 16.4566 18.9269C16.4566 18.8121 16.8011 18.7355 17.2222 18.7355C17.6432 18.7355 17.9878 18.6398 17.9878 18.5441C17.9878 18.4293 18.2557 18.3527 18.562 18.3527C18.8873 18.3527 19.2893 18.2762 19.4807 18.1805C20.0166 17.9125 21.1458 17.5871 21.5669 17.5871C21.7774 17.5871 22.0071 17.5297 22.0837 17.4531C22.2559 17.2809 25.3183 16.4387 26.4093 16.2665C26.8878 16.1899 27.4045 16.0559 27.5576 15.9602C27.7108 15.8645 28.0361 15.8071 28.285 15.8454C28.5529 15.8645 28.8591 15.7306 29.0697 15.5009C29.4525 15.0798 29.663 15.1564 29.663 15.7114C29.663 16.0942 29.8161 16.1325 30.2372 15.8454C30.4478 15.6923 30.4669 15.6157 30.2946 15.5392C29.9118 15.386 30.0075 15.099 30.4286 15.099C30.6391 15.099 30.8114 15.0033 30.8114 14.9076C30.8114 14.7927 31.2516 14.7162 31.7684 14.7162C32.3043 14.7162 32.7254 14.6205 32.7254 14.5248C32.7254 14.4099 33.0316 14.3334 33.3953 14.3334C33.7972 14.3334 34.0652 14.2377 34.0843 14.0845C34.0843 13.9697 34.18 14.0463 34.2948 14.2759C34.5628 14.831 35.2136 14.8693 35.2136 14.3334C35.2136 14.0845 35.3475 13.9506 35.5963 13.9506C35.8069 13.9506 35.9791 13.8549 35.9791 13.7592C35.9791 13.6443 36.2471 13.5678 36.5533 13.5678C36.8787 13.5678 37.1275 13.4721 37.1275 13.3764C37.1275 13.2615 37.5103 13.185 37.9697 13.185C38.429 13.185 38.8501 13.1084 38.8884 13.0319C38.9267 12.9362 39.1755 12.8022 39.4434 12.7448C40.0176 12.5916 40.7641 13.1084 40.7641 13.6443C40.7641 13.8166 40.9172 13.9506 41.1469 13.9506C41.3957 13.9506 41.5297 13.8166 41.5297 13.5678C41.5297 13.319 41.3957 13.185 41.1469 13.185C40.9363 13.185 40.7641 13.1084 40.7641 13.0127C40.7641 12.7448 41.3191 12.228 41.6445 12.2088C41.7976 12.1897 42.1421 12.1514 42.4484 12.1323C42.7355 12.094 43.3097 11.9409 43.7307 11.7878C44.1518 11.6155 44.6877 11.4815 44.9174 11.4624C45.1471 11.4624 45.3959 11.3667 45.4533 11.271C45.5107 11.1562 45.8553 11.0796 46.2189 11.0796C46.5826 11.0796 46.9271 11.1562 46.9845 11.271C47.1759 11.5964 47.597 11.4815 47.7118 11.0796C47.7884 10.7925 47.9798 10.6968 48.4965 10.6968C49.0516 10.6968 49.1856 10.7734 49.1856 11.0796C49.1856 11.2901 49.2813 11.4624 49.377 11.4624C49.4918 11.4624 49.5684 11.1944 49.5684 10.8882C49.5684 10.3331 49.5875 10.314 50.5254 10.314C51.0613 10.314 51.4823 10.3906 51.4823 10.5054C51.4823 10.6011 51.6163 10.6968 51.7694 10.6968C51.9226 10.6968 52.0565 10.5245 52.0565 10.314C52.0565 9.96949 52.1905 9.93121 53.2049 9.93121C53.8365 9.93121 54.3533 10.0078 54.3533 10.1226C54.3533 10.2183 54.5256 10.314 54.7361 10.314C54.9849 10.314 55.1189 10.18 55.1189 9.95036C55.1189 9.60584 55.2912 9.56756 56.9755 9.51014C58.277 9.47186 58.8894 9.52928 59.0617 9.6824C59.4062 10.0269 59.8656 9.98864 59.9804 9.5867C60.057 9.37616 60.3058 9.26132 60.6694 9.24218C60.9757 9.22305 61.2436 9.28046 61.2436 9.33788ZM53.492 39.617C54.2385 39.7127 55.8462 39.885 57.0903 39.9806C59.4254 40.1529 60.4015 40.44 59.5785 40.6697C59.3297 40.7271 59.1383 40.8611 59.1383 40.9568C59.1383 41.0525 58.966 41.129 58.7555 41.129C58.5449 41.129 58.3727 41.2056 58.3727 41.3204C58.3727 41.4161 58.2004 41.5118 57.9899 41.5118C57.7793 41.5118 57.6071 41.5884 57.6071 41.7032C57.6071 41.7989 57.3583 41.8946 57.0329 41.8946C56.7266 41.8946 56.4587 41.9712 56.4587 42.086C56.4587 42.1817 56.1142 42.2774 55.7122 42.2774C55.2912 42.2774 54.8892 42.3731 54.8127 42.488C54.7361 42.6219 54.4299 42.6411 53.9897 42.5645C53.6069 42.5071 52.7456 42.3923 52.0565 42.3348C51.3675 42.2966 50.7359 42.1626 50.6211 42.0669C50.5254 41.9712 50.0851 41.8946 49.6258 41.8946C49.1664 41.8946 48.8028 41.8563 48.8028 41.7989C48.8028 41.6267 49.7215 40.7462 49.8937 40.7462C49.9703 40.7462 50.2574 40.4017 50.5254 39.9806C50.9273 39.2916 51.0613 39.2151 51.578 39.3108C51.8843 39.3682 52.7647 39.5022 53.492 39.617Z" fill="#121110"/>
<path d="M5.54688 12.7828C5.54688 13.0125 5.66171 13.1847 5.83397 13.1847C5.98709 13.1847 6.12107 13.2613 6.12107 13.3761C6.12107 13.4718 6.33161 13.5675 6.58042 13.5675C6.84838 13.5675 7.11634 13.6441 7.17376 13.7589C7.23117 13.8546 7.46085 13.9503 7.67139 13.9503C7.86279 13.9503 8.03504 14.0269 8.03504 14.1417C8.03504 14.2374 8.2073 14.3331 8.41784 14.3331C8.62838 14.3331 8.80064 14.4097 8.80064 14.5245C8.80064 14.6202 8.97289 14.7159 9.18343 14.7159C9.39397 14.7159 9.71934 14.7925 9.91074 14.8882C11.7099 15.8452 13.4133 16.6299 13.6621 16.6299C13.8344 16.6299 13.9684 16.4768 13.9684 16.2854C13.9684 16.0557 13.5664 15.7495 12.7243 15.3284C12.0353 14.9839 11.3462 14.7159 11.1931 14.7159C11.04 14.7159 10.906 14.6202 10.906 14.5245C10.906 14.4097 10.6955 14.3331 10.4275 14.3331C10.1596 14.3331 9.94902 14.2374 9.94902 14.1417C9.94902 14.0269 9.77676 13.9503 9.56623 13.9503C9.35569 13.9503 9.18343 13.8546 9.18343 13.7589C9.18343 13.6441 9.01117 13.5675 8.81978 13.5675C8.60924 13.5675 8.37956 13.4718 8.32214 13.3761C8.26472 13.2613 7.99677 13.1847 7.72881 13.1847C7.47999 13.1847 7.26945 13.1082 7.26945 13.0125C7.26945 12.9168 7.07806 12.8019 6.84838 12.7445C6.59956 12.6871 6.21677 12.5723 5.98709 12.5148C5.62343 12.4 5.54688 12.4383 5.54688 12.7828Z" fill="#121110"/>
<path d="M5.39428 15.7878C5.43256 15.9792 5.79622 16.1897 6.31299 16.3428C8.18869 16.8213 9.56675 17.2998 9.56675 17.4338C9.56675 17.5104 9.77729 17.5869 10.0261 17.5869C10.2941 17.5869 10.562 17.6635 10.6194 17.7783C10.6769 17.874 10.9448 17.9697 11.2128 17.9697C11.5381 17.9697 11.6721 17.874 11.6721 17.5869C11.6721 17.3381 11.5381 17.2041 11.3276 17.2041C11.1362 17.2041 10.9065 17.1276 10.8108 17.0319C10.4663 16.7256 6.58095 15.4816 5.94933 15.4816C5.47084 15.4816 5.33686 15.5581 5.39428 15.7878Z" fill="#121110"/>
<path d="M6.3513 19.903C6.1599 20.2092 6.21732 20.2858 6.88721 20.458C7.30829 20.5729 8.36098 20.6494 9.22227 20.6111C10.562 20.5537 10.8109 20.4963 10.8683 20.2092C10.9257 19.9221 10.7534 19.8838 9.4328 19.8838C8.60979 19.8838 7.63367 19.8073 7.25087 19.7116C6.67668 19.5776 6.52356 19.6159 6.3513 19.903Z" fill="#121110"/>
<path d="M11.8627 22.5629C11.7096 22.6586 11.3459 22.7543 11.0588 22.7543C10.7526 22.7543 10.5229 22.8309 10.5229 22.9457C10.5229 23.0414 10.3124 23.1371 10.0444 23.1371C9.77647 23.1371 9.56593 23.2137 9.56593 23.3285C9.56593 23.4242 9.31712 23.5199 8.99174 23.5199C8.6855 23.5199 8.41755 23.5965 8.41755 23.7113C8.41755 23.807 8.24529 23.9027 8.03475 23.9027C7.82421 23.9027 7.65196 23.9793 7.65196 24.0558C7.65196 24.1515 7.21174 24.3429 6.67583 24.4769C6.15905 24.63 5.68056 24.8214 5.62314 24.898C5.56572 24.9746 5.35518 25.0511 5.14465 25.0511C4.80013 25.0511 4.62787 25.6062 4.89583 25.8741C5.02981 25.989 6.19733 25.6062 7.40314 25.0511C7.86249 24.8406 8.36013 24.6683 8.51325 24.6683C8.66636 24.6683 8.80034 24.5726 8.80034 24.4769C8.80034 24.3621 9.01088 24.2855 9.27884 24.2855C9.54679 24.2855 9.75733 24.1898 9.75733 24.0941C9.75733 23.9793 10.0253 23.9027 10.3315 23.9027C10.6569 23.9027 10.9057 23.807 10.9057 23.7113C10.9057 23.5965 11.1737 23.5199 11.4799 23.5199C11.8053 23.5199 12.0541 23.4242 12.0541 23.3285C12.0541 23.2137 12.2264 23.1371 12.4369 23.1371C12.6857 23.1371 12.8197 23.0032 12.8197 22.7543C12.8197 22.3333 12.3603 22.2376 11.8627 22.5629Z" fill="#121110"/>
<path d="M13.2984 24.8606C13.241 24.9563 13.0113 25.052 12.8199 25.052C12.6285 25.052 12.4371 25.1285 12.3988 25.2051C12.3797 25.3008 11.6906 25.7027 10.9059 26.1238C10.1212 26.5257 9.45128 26.9277 9.413 27.0042C9.37472 27.0999 9.2216 27.1573 9.06849 27.1573C8.91537 27.1573 8.80053 27.2339 8.80053 27.3487C8.80053 27.4444 8.62827 27.5401 8.41773 27.5401C8.2072 27.5401 8.03494 27.6167 8.03494 27.7315C8.03494 27.8272 7.86268 27.9229 7.65214 27.9229C7.44161 27.9229 7.26935 27.9995 7.26935 28.076C7.26935 28.1717 6.96311 28.344 6.59946 28.4971C5.79559 28.8225 5.66161 29.4541 6.40806 29.4541C6.67602 29.4541 6.88655 29.3584 6.88655 29.2627C6.88655 29.1479 7.05881 29.0713 7.26935 29.0713C7.47989 29.0713 7.65214 28.9756 7.65214 28.8799C7.65214 28.7651 7.8244 28.6885 8.03494 28.6885C8.24548 28.6885 8.41773 28.5928 8.41773 28.4971C8.41773 28.3823 8.55171 28.3057 8.70483 28.3057C8.85795 28.3057 8.99193 28.21 8.99193 28.1143C8.99193 27.9995 9.12591 27.9229 9.27902 27.9229C9.43214 27.9229 9.56612 27.8272 9.56612 27.7315C9.56612 27.6167 9.73838 27.5401 9.94892 27.5401C10.1595 27.5401 10.3317 27.4444 10.3317 27.3487C10.3317 27.2339 10.4657 27.1573 10.6188 27.1573C10.7719 27.1573 10.9059 27.0616 10.9059 26.9659C10.9059 26.8511 11.0782 26.7745 11.2887 26.7745C11.4992 26.7745 11.6715 26.6788 11.6715 26.5831C11.6715 26.4683 11.8438 26.3917 12.0543 26.3917C12.2648 26.3917 12.4371 26.3152 12.4371 26.2195C12.4371 26.1238 12.8582 25.8941 13.3749 25.7218C14.1788 25.473 14.5425 25.1477 14.5425 24.7457C14.5425 24.5735 13.4132 24.6883 13.2984 24.8606Z" fill="#121110"/>
<path d="M56.8418 10.3145C56.8418 10.5633 56.9758 10.6973 57.2246 10.6973C57.6839 10.6973 57.7031 10.5824 57.3394 10.1996C56.9566 9.83598 56.8418 9.85512 56.8418 10.3145Z" fill="#121110"/>
<path d="M64.4971 10.4863C64.4971 10.6968 64.9947 10.9073 65.1478 10.7542C65.3775 10.5245 65.2435 10.314 64.8799 10.314C64.6693 10.314 64.4971 10.3906 64.4971 10.4863Z" fill="#121110"/>
<path d="M61.1097 10.6389C60.7269 10.7729 60.8226 11.0791 61.2437 11.0791C61.4542 11.0791 61.6265 11.0025 61.6265 10.9068C61.6265 10.658 61.3968 10.5432 61.1097 10.6389Z" fill="#121110"/>
<path d="M63.847 11.2523C63.7896 11.348 63.847 11.4628 64.0002 11.5202C64.2873 11.6351 64.4978 11.5011 64.4978 11.2331C64.4978 11.0226 63.981 11.0417 63.847 11.2523Z" fill="#121110"/>
<path d="M65.3974 11.2141C65.1294 11.4629 65.2825 11.8457 65.6462 11.8457C65.895 11.8457 66.029 11.7117 66.029 11.4629C66.029 11.0993 65.6462 10.9461 65.3974 11.2141Z" fill="#121110"/>
<path d="M67.2156 11.2518C67.2539 11.3857 67.3496 11.4814 67.4261 11.4814C67.6558 11.4623 67.5984 11.1943 67.3687 11.0986C67.2347 11.0604 67.1582 11.1369 67.2156 11.2518Z" fill="#121110"/>
<path d="M69.5699 11.4629C69.4359 11.6926 69.6082 12.0371 69.8761 12.0371C70.1058 12.0371 70.1058 11.5203 69.8761 11.3672C69.7804 11.3098 69.6465 11.3481 69.5699 11.4629Z" fill="#121110"/>
<path d="M52.4395 11.8447C52.4395 12.0553 52.5352 12.2275 52.6309 12.2275C52.7457 12.2275 52.8222 12.0553 52.8222 11.8447C52.8222 11.6342 52.7457 11.4619 52.6309 11.4619C52.5352 11.4619 52.4395 11.6342 52.4395 11.8447Z" fill="#121110"/>
<path d="M55.5593 11.5768C55.2531 11.7108 55.4636 12.2275 55.8081 12.2275C55.9613 12.2275 56.0761 12.0553 56.0761 11.8447C56.0761 11.4619 55.9804 11.4045 55.5593 11.5768Z" fill="#121110"/>
<path d="M58.373 12.0362C58.373 12.2467 58.4687 12.4189 58.5644 12.4189C58.6793 12.4189 58.7558 12.2467 58.7558 12.0362C58.7558 11.8256 58.6793 11.6534 58.5644 11.6534C58.4687 11.6534 58.373 11.8256 58.373 12.0362Z" fill="#121110"/>
<path d="M56.459 12.1318C56.459 12.285 56.5738 12.4189 56.7269 12.4189C57.148 12.4189 57.2629 12.0936 56.9183 11.9596C56.4973 11.7873 56.459 11.8065 56.459 12.1318Z" fill="#121110"/>
<path d="M59.3674 12.0171C59.1569 12.151 59.176 12.2085 59.4248 12.3042C59.8076 12.4381 60.1521 12.285 59.999 12.0171C59.865 11.8065 59.6928 11.8065 59.3674 12.0171Z" fill="#121110"/>
<path d="M72.4217 12.1127C72.3451 12.3041 72.3834 12.5337 72.4982 12.6486C72.6513 12.8017 72.747 12.7825 72.8427 12.5337C72.9193 12.3423 72.881 12.1127 72.7662 11.9978C72.6131 11.8447 72.5174 11.8638 72.4217 12.1127Z" fill="#121110"/>
<path d="M44.4004 12.3233C44.4004 12.4764 44.5726 12.6104 44.7832 12.6104C44.9937 12.6104 45.166 12.4764 45.166 12.3233C45.166 12.1701 44.9937 12.0362 44.7832 12.0362C44.5726 12.0362 44.4004 12.1701 44.4004 12.3233Z" fill="#121110"/>
<path d="M50.9468 12.3431C50.9851 12.5536 51.1573 12.7259 51.3679 12.7641C51.6167 12.8216 51.6933 12.745 51.6358 12.4962C51.5976 12.2856 51.4253 12.1134 51.2148 12.0751C50.9659 12.0177 50.8894 12.0942 50.9468 12.3431Z" fill="#121110"/>
<path d="M53.6256 12.2661C53.7596 12.6297 54.3529 12.6871 54.3529 12.3426C54.3529 12.1512 54.1807 12.0364 53.951 12.0364C53.7213 12.0364 53.5874 12.1321 53.6256 12.2661Z" fill="#121110"/>
<path d="M60.8613 12.4192C60.8613 12.8402 60.8805 12.8594 61.3207 12.6871C61.5695 12.5914 61.5695 12.534 61.3398 12.3043C60.9762 11.9407 60.8613 11.9598 60.8613 12.4192Z" fill="#121110"/>
<path d="M62.0098 12.419C62.0098 12.6295 62.1055 12.8018 62.2012 12.8018C62.316 12.8018 62.3926 12.6295 62.3926 12.419C62.3926 12.2084 62.316 12.0362 62.2012 12.0362C62.1055 12.0362 62.0098 12.2084 62.0098 12.419Z" fill="#121110"/>
<path d="M48.6687 12.3624C48.3242 12.4964 48.3625 12.9366 48.7261 13.0706C49.1664 13.2428 49.1855 13.2237 49.1855 12.7069C49.1855 12.2284 49.1089 12.171 48.6687 12.3624Z" fill="#121110"/>
<path d="M63.1572 12.4955C63.1572 12.6869 63.3295 12.8018 63.5592 12.8018C64.0185 12.8018 63.9611 12.3615 63.4826 12.2658C63.2912 12.2276 63.1572 12.3233 63.1572 12.4955Z" fill="#121110"/>
<path d="M65.2054 12.6869C65.0905 12.974 65.2245 13.1846 65.4924 13.1846C65.703 13.1846 65.6838 12.6678 65.4733 12.5338C65.3776 12.4764 65.2628 12.5338 65.2054 12.6869Z" fill="#121110"/>
<path d="M68.4402 12.7069C68.3254 13.0322 68.7465 13.3002 69.0718 13.1088C69.3206 12.9365 69.1101 12.4198 68.8039 12.4198C68.6699 12.4198 68.4976 12.5537 68.4402 12.7069Z" fill="#121110"/>
<path d="M70.8135 13.0889C70.8135 13.3568 70.9092 13.5674 71.0049 13.5674C71.1197 13.5674 71.1963 13.3568 71.1963 13.0889C71.1963 12.8209 71.1197 12.6104 71.0049 12.6104C70.9092 12.6104 70.8135 12.8209 70.8135 13.0889Z" fill="#121110"/>
<path d="M46.5059 13.1846C46.5059 13.4334 46.6398 13.5674 46.8887 13.5674C47.1375 13.5674 47.2714 13.4334 47.2714 13.1846C47.2714 12.9358 47.1375 12.8018 46.8887 12.8018C46.6398 12.8018 46.5059 12.9358 46.5059 13.1846Z" fill="#121110"/>
<path d="M66.6605 13.1272C66.2777 13.2803 66.3734 13.5674 66.7945 13.5674C67.005 13.5674 67.1773 13.4334 67.1773 13.2803C67.1773 12.9932 67.0624 12.9549 66.6605 13.1272Z" fill="#121110"/>
<path d="M42.4873 13.5674C42.4873 13.8162 42.6213 13.9502 42.8701 13.9502C43.1189 13.9502 43.2529 13.8162 43.2529 13.5674C43.2529 13.3186 43.1189 13.1846 42.8701 13.1846C42.6213 13.1846 42.4873 13.3186 42.4873 13.5674Z" fill="#121110"/>
<path d="M44.8988 13.4908C44.7266 13.9311 44.7457 13.9502 45.1668 13.9502C45.4156 13.9502 45.5496 13.8162 45.5496 13.5674C45.5496 13.108 45.0711 13.0506 44.8988 13.4908Z" fill="#121110"/>
<path d="M38.8496 13.9503C38.8496 14.4096 38.9644 14.4288 39.3472 14.0651C39.7109 13.6823 39.6918 13.5675 39.2324 13.5675C38.9836 13.5675 38.8496 13.7014 38.8496 13.9503Z" fill="#121110"/>
<path d="M37.127 14.085C37.127 14.1807 37.2035 14.353 37.2992 14.5061C37.4523 14.7358 37.5289 14.7358 37.7777 14.4678C38.1988 14.0467 38.1605 13.951 37.6054 13.951C37.3375 13.951 37.127 14.0084 37.127 14.085Z" fill="#121110"/>
<path d="M71.9619 14.1416C71.9619 14.2373 72.1342 14.333 72.3447 14.333C72.5552 14.333 72.7275 14.2373 72.7275 14.1416C72.7275 14.0268 72.5552 13.9502 72.3447 13.9502C72.1342 13.9502 71.9619 14.0268 71.9619 14.1416Z" fill="#121110"/>
<path d="M74.0674 14.1416C74.0674 14.2373 74.2014 14.333 74.3545 14.333C74.5076 14.333 74.6416 14.2373 74.6416 14.1416C74.6416 14.0268 74.5076 13.9502 74.3545 13.9502C74.2014 13.9502 74.0674 14.0268 74.0674 14.1416Z" fill="#121110"/>
<path d="M35.5967 14.7158C35.5967 14.9264 35.6924 15.0986 35.7881 15.0986C35.9029 15.0986 35.9795 14.9264 35.9795 14.7158C35.9795 14.5053 35.9029 14.333 35.7881 14.333C35.6924 14.333 35.5967 14.5053 35.5967 14.7158Z" fill="#121110"/>
<path d="M68.3252 14.4863C68.3252 14.5629 68.4975 14.7351 68.6889 14.85C68.9951 15.0414 69.0716 15.0222 69.1673 14.7926C69.3396 14.3523 69.3205 14.3332 68.8037 14.3332C68.5357 14.3332 68.3252 14.3906 68.3252 14.4863Z" fill="#121110"/>
<path d="M75.2158 14.7159C75.2158 15.1752 75.3307 15.1944 75.7135 14.8307C76.0771 14.4479 76.058 14.3331 75.5986 14.3331C75.3498 14.3331 75.2158 14.4671 75.2158 14.7159Z" fill="#121110"/>
<path d="M31.0599 15.3858C30.7154 15.7686 30.7537 15.8643 31.1939 15.8643C31.4427 15.8643 31.5767 15.7303 31.5767 15.4815C31.5767 15.0412 31.3853 15.003 31.0599 15.3858Z" fill="#121110"/>
<path d="M32.5342 15.2714C32.5342 15.4819 33.0318 15.6925 33.1849 15.5394C33.4146 15.3097 33.2806 15.0991 32.917 15.0991C32.7064 15.0991 32.5342 15.1757 32.5342 15.2714Z" fill="#121110"/>
<path d="M71.1963 15.29C71.1963 15.3857 71.3685 15.4814 71.5791 15.4814C71.7896 15.4814 71.9619 15.3857 71.9619 15.29C71.9619 15.1752 71.7896 15.0987 71.5791 15.0987C71.3685 15.0987 71.1963 15.1752 71.1963 15.29Z" fill="#121110"/>
<path d="M77.2443 15.6155C77.0146 15.8451 77.1294 16.2471 77.4165 16.2471C77.5696 16.2471 77.7036 16.1322 77.7036 15.9791C77.7036 15.6537 77.4356 15.4432 77.2443 15.6155Z" fill="#121110"/>
<path d="M73.3973 16.0753C73.2059 16.3624 73.4165 16.5155 73.7801 16.3624C73.9524 16.305 74.029 16.171 73.9715 16.0562C73.8184 15.8074 73.5505 15.8074 73.3973 16.0753Z" fill="#121110"/>
<path d="M78.6422 16.1708C78.4508 16.4196 78.4508 16.4961 78.6614 16.6301C78.9867 16.8215 79.2356 16.7067 79.2356 16.343C79.2356 15.922 78.9293 15.8454 78.6422 16.1708Z" fill="#121110"/>
<path d="M75.5986 16.8213C75.5986 17.0318 75.6943 17.2041 75.79 17.2041C75.9049 17.2041 75.9814 17.0318 75.9814 16.8213C75.9814 16.6108 75.9049 16.4385 75.79 16.4385C75.6943 16.4385 75.5986 16.6108 75.5986 16.8213Z" fill="#121110"/>
<path d="M77.1684 17.1847C76.977 17.2996 76.977 17.3761 77.2067 17.5675C77.3981 17.7398 77.5129 17.7398 77.6086 17.5867C77.8 17.2804 77.4746 16.9933 77.1684 17.1847Z" fill="#121110"/>
<path d="M54.3152 17.4726C54.1238 17.6065 53.9707 17.8745 53.9707 18.0467C53.9707 18.219 53.8941 18.353 53.7793 18.353C53.6836 18.353 53.5879 18.5252 53.5879 18.7358C53.5879 18.9463 53.5113 19.1186 53.3965 19.1186C53.3008 19.1186 53.2051 19.3674 53.2051 19.6928C53.2051 19.999 53.1285 20.267 53.0137 20.267C52.8988 20.267 52.8223 21.1857 52.8223 22.6594C52.8223 24.1332 52.8988 25.0519 53.0137 25.0519C53.1285 25.0519 53.2051 25.4347 53.2051 25.9132C53.2051 26.3917 53.3008 26.7745 53.3965 26.7745C53.5113 26.7745 53.5879 27.0042 53.5879 27.2721C53.5879 28.076 53.9898 28.3057 55.387 28.3057C56.0952 28.3057 56.6502 28.2291 56.6502 28.1143C56.6502 27.9994 57.0904 27.9229 57.6072 27.9229C58.1431 27.9229 58.5642 27.8272 58.5642 27.7315C58.5642 27.6166 58.947 27.5401 59.4063 27.5401C59.8848 27.5401 60.3251 27.4444 60.3825 27.3487C60.4399 27.2338 60.8801 27.1573 61.3586 27.1573C61.8562 27.1573 62.3539 27.0424 62.507 26.8893C62.8515 26.5257 62.8515 25.7027 62.507 25.5687C62.3539 25.5113 61.4352 25.6261 60.4399 25.8366C59.4638 26.0472 58.2388 26.296 57.7029 26.4108C57.1861 26.5257 56.344 26.6596 55.8463 26.7171C54.9851 26.8128 54.9468 26.7936 54.8319 26.2577C54.7554 25.9706 54.6023 25.473 54.5066 25.1667C54.2386 24.4969 54.2577 20.8986 54.5257 20.2095C54.6405 19.9224 54.6788 19.2717 54.6214 18.7741C54.5257 17.9128 54.5257 17.8936 54.8128 18.353C55.0999 18.8315 55.0999 18.8315 55.0616 18.0085C55.0425 17.1663 54.8702 17.0515 54.3152 17.4726Z" fill="#121110"/>
<path d="M75.9432 17.9123C75.4839 18.0272 75.503 18.3525 75.9815 18.3525C76.1921 18.3525 76.3643 18.2186 76.3643 18.0654C76.3643 17.9123 76.3452 17.7975 76.326 17.7975C76.2878 17.8166 76.1155 17.8549 75.9432 17.9123Z" fill="#121110"/>
<path d="M80.3838 18.3526C80.3838 18.6014 80.5178 18.7354 80.7666 18.7354C81.2259 18.7354 81.2451 18.6205 80.8814 18.2377C80.4986 17.8741 80.3838 17.8932 80.3838 18.3526Z" fill="#121110"/>
<path d="M56.2676 18.4483C56.2676 18.6014 56.4016 18.7354 56.5547 18.7354C56.7078 18.7354 56.8418 18.8119 56.8418 18.9268C56.8418 19.2139 57.9327 19.1564 58.0667 18.8693C58.1624 18.6779 58.2007 18.6779 58.2964 18.8693C58.3538 19.0033 58.5261 19.1182 58.6792 19.1182C58.9854 19.1182 58.9854 19.0799 58.8323 18.6588C58.6983 18.3334 57.9902 18.2377 57.9902 18.544C57.9902 18.6397 57.9136 18.7354 57.7988 18.7354C57.7031 18.7354 57.6074 18.6014 57.6074 18.4483C57.6074 18.2569 57.3968 18.1612 56.9375 18.1612C56.4781 18.1612 56.2676 18.2569 56.2676 18.4483Z" fill="#121110"/>
<path d="M59.3489 18.659C59.1383 18.9078 59.1383 19.0035 59.3297 19.1183C59.4637 19.1949 59.5211 19.3863 59.4828 19.5394C59.368 19.8265 59.7125 20.0179 61.3011 20.5347C62.4495 20.9175 62.7749 20.9175 62.7749 20.5538C62.7749 20.4007 62.8706 20.2667 62.9663 20.2667C63.0811 20.2667 63.062 20.1136 62.928 19.8839C62.794 19.6734 62.5261 19.5011 62.3538 19.5011C62.1624 19.5011 62.0093 19.4054 62.0093 19.3097C62.0093 19.1949 61.837 19.1183 61.6265 19.1183C61.416 19.1183 61.2437 19.0226 61.2437 18.9269C61.2437 18.8121 60.9375 18.7355 60.5738 18.7355C60.2101 18.7355 59.9039 18.6398 59.9039 18.5441C59.9039 18.2762 59.6551 18.3145 59.3489 18.659Z" fill="#121110"/>
<path d="M77.972 18.6593C78.0294 18.8315 78.0869 19.0038 78.0869 19.0421C78.0869 19.2717 78.6419 19.0803 78.7376 18.8124C78.9099 18.3722 78.8907 18.353 78.3548 18.353C77.972 18.353 77.8763 18.4296 77.972 18.6593Z" fill="#121110"/>
<path d="M81.9141 20.2666C81.9141 20.4772 82.048 20.6494 82.2012 20.6494C82.3543 20.6494 82.4883 20.4772 82.4883 20.2666C82.4883 20.0561 82.3543 19.8838 82.2012 19.8838C82.048 19.8838 81.9141 20.0561 81.9141 20.2666Z" fill="#121110"/>
<path d="M77.3404 20.2281C76.8427 20.3047 76.3642 20.6875 76.3642 21.0129C76.3642 21.1277 76.2877 21.2234 76.1728 21.2234C76.0771 21.2234 75.9814 21.4722 75.9814 21.7976C75.9814 22.1038 76.0771 22.3718 76.1728 22.3718C76.2877 22.3718 76.3642 22.5441 76.3642 22.7546C76.3642 22.9651 76.4982 23.1374 76.6513 23.1374C76.8045 23.1374 76.9384 23.2139 76.9384 23.3288C76.9384 23.5967 78.4505 23.5585 78.7376 23.2714C78.8716 23.1565 79.1012 22.7546 79.2735 22.4101C79.5606 21.8742 79.5606 21.7402 79.3118 21.2426C78.8716 20.3621 78.3165 20.075 77.3404 20.2281Z" fill="#121110"/>
<path d="M80.001 20.458C80.001 20.6686 80.0967 20.8408 80.1924 20.8408C80.3072 20.8408 80.3838 20.6686 80.3838 20.458C80.3838 20.2475 80.3072 20.0752 80.1924 20.0752C80.0967 20.0752 80.001 20.2475 80.001 20.458Z" fill="#121110"/>
<path d="M57.0712 21.6062C57.2435 21.8742 57.4349 21.9508 57.7985 21.8551C58.4301 21.7019 58.5258 21.6062 58.0282 21.6062C57.7985 21.6062 57.6071 21.5105 57.6071 21.4148C57.6071 21.3 57.4349 21.2234 57.2243 21.2234C56.8798 21.2234 56.8607 21.2809 57.0712 21.6062Z" fill="#121110"/>
<path d="M59.5597 21.8549C59.1386 22.1037 59.1386 22.1037 59.8659 22.4291C60.8421 22.8501 61.244 22.8501 61.244 22.3908C61.244 22.1611 61.0335 21.9506 60.6507 21.8166C60.3061 21.7017 60.0382 21.606 60.019 21.606C59.9999 21.6252 59.8085 21.7209 59.5597 21.8549Z" fill="#121110"/>
<path d="M81.7227 22.506C81.7227 22.6017 81.8184 22.7931 81.9141 22.9462C82.0863 23.195 82.1246 23.195 82.2968 22.9462C82.5839 22.5251 82.5265 22.372 82.1055 22.372C81.8949 22.372 81.7227 22.4294 81.7227 22.506Z" fill="#121110"/>
<path d="M59.7313 24.2096C59.3868 24.6115 59.5973 24.7646 60.4778 24.7646C61.3391 24.7646 61.4922 24.6498 61.3199 24.2096C61.1668 23.8077 60.095 23.8077 59.7313 24.2096Z" fill="#121110"/>
<path d="M58.2382 24.6119C58.4104 24.6502 58.7166 24.6502 58.908 24.6119C59.0803 24.5545 58.9272 24.5162 58.5635 24.5162C58.1999 24.5162 58.0468 24.5545 58.2382 24.6119Z" fill="#121110"/>
</svg>
