<svg width="50" height="49" viewBox="0 0 50 49" fill="none" xmlns="http://www.w3.org/2000/svg">
<path d="M42.819 18.2249L48.938 24.1374C48.9671 24.1654 48.9872 24.2015 48.9956 24.2411C49.004 24.2806 49.0004 24.3217 48.9852 24.3592C48.9701 24.3966 48.944 24.4287 48.9105 24.4512C48.877 24.4738 48.8375 24.4858 48.7971 24.4857H42.819V47.1663H31.4799V32.5875H18.5209V47.1663H7.18183V24.4881H1.20289C1.16249 24.4882 1.12299 24.4762 1.08947 24.4536C1.05595 24.4311 1.02994 24.399 1.01478 24.3616C0.999631 24.3241 0.996026 24.283 1.00443 24.2435C1.01284 24.204 1.03288 24.1679 1.06197 24.1398L25.0004 1L35.5296 11.1785V6.66954H42.819V18.2249Z" stroke="#FB8F2C" stroke-width="2" stroke-miterlimit="10" stroke-linecap="round" stroke-linejoin="round"/>
</svg>
