<svg width="50" height="44" viewBox="0 0 50 44" fill="none" xmlns="http://www.w3.org/2000/svg">
<path d="M49.0002 33.0004V29.0004L42.6002 23.4004H36.2002" stroke="#FB8F2C" stroke-width="2" stroke-miterlimit="10" stroke-linecap="round" stroke-linejoin="round"/>
<path d="M18.6004 42.6002C20.3677 42.6002 21.8004 41.1675 21.8004 39.4002C21.8004 37.6329 20.3677 36.2002 18.6004 36.2002C16.8331 36.2002 15.4004 37.6329 15.4004 39.4002C15.4004 41.1675 16.8331 42.6002 18.6004 42.6002Z" stroke="#FB8F2C" stroke-width="2" stroke-miterlimit="10" stroke-linecap="round" stroke-linejoin="round"/>
<path d="M42.6004 42.6002C44.3677 42.6002 45.8004 41.1675 45.8004 39.4002C45.8004 37.6329 44.3677 36.2002 42.6004 36.2002C40.8331 36.2002 39.4004 37.6329 39.4004 39.4002C39.4004 41.1675 40.8331 42.6002 42.6004 42.6002Z" stroke="#FB8F2C" stroke-width="2" stroke-miterlimit="10" stroke-linecap="round" stroke-linejoin="round"/>
<path d="M39.4 39.4004H21.8M15.4 39.4004H12.2V33.0004M12.2 33.0004H49V39.4004H45.8M12.2 33.0004V20.0404M19 15.4004H36.2V33.0004M1 26.6004H5.8M4.2 33.0004H5.8" stroke="#FB8F2C" stroke-width="2" stroke-miterlimit="10" stroke-linecap="round" stroke-linejoin="round"/>
<path d="M10.6 20.2C15.9019 20.2 20.2 15.9019 20.2 10.6C20.2 5.29807 15.9019 1 10.6 1C5.29807 1 1 5.29807 1 10.6C1 15.9019 5.29807 20.2 10.6 20.2Z" stroke="#FB8F2C" stroke-width="2" stroke-miterlimit="10" stroke-linecap="round" stroke-linejoin="round"/>
<path d="M10.5996 5.7998V12.1998H15.3996" stroke="#FB8F2C" stroke-width="2" stroke-miterlimit="10" stroke-linecap="round" stroke-linejoin="round"/>
</svg>
