<svg width="50" height="36" viewBox="0 0 50 36" fill="none" xmlns="http://www.w3.org/2000/svg">
<path d="M4.2002 28.2279V26.6279C4.2002 21.1114 6.39162 15.8209 10.2924 11.9201C14.1931 8.01937 19.4837 5.82795 25.0002 5.82795C30.5167 5.82795 35.8073 8.01937 39.708 11.9201C43.6088 15.8209 45.8002 21.1114 45.8002 26.6279V28.2279M22.2802 5.90795C21.9725 5.42046 21.8022 4.85891 21.7874 4.28264C21.7725 3.70636 21.9135 3.13677 22.1956 2.63405C22.4777 2.13132 22.8904 1.71414 23.39 1.42658C23.8896 1.13901 24.4576 0.991753 25.034 1.00036C25.6104 1.00896 26.1738 1.17311 26.6646 1.47545C27.1554 1.7778 27.5555 2.20711 27.8224 2.71803C28.0894 3.22895 28.2134 3.8025 28.1813 4.37807C28.1492 4.95364 27.9623 5.50986 27.6402 5.98795" stroke="#FB8F2C" stroke-width="2" stroke-linecap="round" stroke-linejoin="round"/>
<path d="M1 28.2275H49M47.4 28.2275L45.8 32.2275C45.5942 32.9177 45.1722 33.5235 44.596 33.9556C44.0199 34.3877 43.3202 34.6233 42.6 34.6275H7.4C6.04 34.6275 4.84 33.5875 4.2 32.2275L2.6 28.2275" stroke="#FB8F2C" stroke-width="2" stroke-linecap="round" stroke-linejoin="round"/>
</svg>
