<svg width="50" height="50" viewBox="0 0 50 50" fill="none" xmlns="http://www.w3.org/2000/svg">
<path d="M15.3996 1.67707C13.4834 0.95951 11.4012 0.808531 9.40159 1.24215C7.40195 1.67578 5.56933 2.67568 4.12251 4.12251C2.67568 5.56933 1.67578 7.40195 1.24215 9.40159C0.808531 11.4012 0.95951 13.4834 1.67707 15.3996L15.3996 1.67707ZM34.5998 1.67707C36.5159 0.95951 38.5981 0.808531 40.5978 1.24215C42.5974 1.67578 44.43 2.67568 45.8769 4.12251C47.3237 5.56933 48.3236 7.40195 48.7572 9.40159C49.1908 11.4012 49.0399 13.4834 48.3223 15.3996L34.5998 1.67707Z" stroke="#FB8F2C" stroke-width="2" stroke-miterlimit="10" stroke-linecap="round" stroke-linejoin="round"/>
<path d="M24.9994 48.2C36.487 48.2 45.7996 38.8874 45.7996 27.3998C45.7996 15.9122 36.487 6.59961 24.9994 6.59961C13.5118 6.59961 4.19922 15.9122 4.19922 27.3998C4.19922 38.8874 13.5118 48.2 24.9994 48.2Z" stroke="#FB8F2C" stroke-width="2" stroke-miterlimit="10" stroke-linecap="round" stroke-linejoin="round"/>
<path d="M4.19922 48.9996L10.6969 42.502M45.7996 48.9996L39.3019 42.502" stroke="#FB8F2C" stroke-width="2" stroke-miterlimit="10" stroke-linecap="round" stroke-linejoin="round"/>
<path d="M33.8001 28.2001H25V13" stroke="#FB8F2C" stroke-width="2" stroke-miterlimit="10" stroke-linecap="round" stroke-linejoin="round"/>
</svg>
